<?xml version="1.0" encoding="UTF-8"?><svg id="Ebene_1" xmlns="http://www.w3.org/2000/svg" viewBox="0 0 57.84 86.1"><defs><style>.cls-1{fill:#304f9e;}</style></defs><path class="cls-1" d="M30.52,74.03c1.62-1.6,2.5-3.3,3.61-4.84,.37-.52,.73-1.05,1.17-1.51,.45-.47,1.04-.88,1.67-.39,.67,.52,.3,1.1-.08,1.65-1.32,1.93-2.61,3.87-3.97,5.89,1.13,1.07,2.49,.47,3.66,.75,.71,.17,1.47,.18,2.18,.37,.42,.11,.72,.52,.69,.97-.05,.62-.48,.94-1.08,.91-1.38-.06-2.76-.18-4.14-.27-.53-.03-1.07-.12-1.51,.33-.35,.92,.24,1.61,.62,2.34,.39,.75,.94,1.43,1.29,2.2,.41,.91,1.4,2.13,.16,2.8-1.37,.74-1.6-.91-2.12-1.72-.72-1.13-1.34-2.33-2.32-4.06-.92,2.32-1.43,4.14-2.41,5.73-.36,.58-.74,1.14-1.48,.79-.75-.35-.52-1.05-.34-1.67,.36-1.31,1.24-2.47,1.25-3.95-1.53-.63-2.74,.4-4.05,.56-.63,.08-1.23,.32-1.86,.46-.55,.13-1.11,.07-1.34-.52-.29-.74,.11-1.28,.77-1.49,1.42-.45,2.88-.78,4.3-1.22,.68-.21,1.51-.16,2.07-1.12-1.81-1.42-3.97-2.26-5.95-3.4-.93-.54-3.09-.66-2.18-2.38,.71-1.34,2.1-.02,3.07,.42,1.73,.77,3.36,1.74,5.41,2.82,.07-2.17-.85-3.71-1.4-5.33-.24-.7-.62-1.35-.84-2.06-.07-.22,.13-.62,.33-.81,.35-.34,.82-.26,1.16,.02,.76,.64,1.07,1.57,1.46,2.44,.72,1.64,1.03,3.45,2.22,5.26Z"/><path class="cls-1" d="M13.85,42.87c.08,1.51,.17,3.03,.24,4.54,.03,.55-.14,1.06-.68,1.2-.7,.18-1.08-.29-1.2-.93-.15-.79-.21-1.6-.33-2.4-.16-1.07-.04-2.23-.74-3.41-1.36,1.53-2.61,2.95-3.88,4.36-.48,.53-1.05,1.14-1.72,.55-.84-.75-.17-1.44,.37-2.05,.78-.9,1.71-1.67,2.51-3.18-2.19,.34-4.12,.67-6.05,.93-.87,.12-2.2,.82-2.37-.64-.16-1.43,1.27-1.25,2.13-1.43,1.41-.3,2.85-.46,4.26-.73,.72-.14,1.52-.1,2.24-.92-1.07-.66-2.02-1.24-2.96-1.83-.49-.3-.96-.62-1.44-.93-.66-.43-1.39-.95-.82-1.89,.55-.9,1.26-.61,1.95-.05,1.19,.97,2.46,1.82,3.9,2.34,.14,.27,.32,.47,.61,.21,.05-.04-.1-.32-.15-.48,.08-1.48-.81-2.66-.97-4.07-.06-.52-.1-1.05,.44-1.32,.71-.35,1.06,.16,1.3,.72,.7,1.62,.87,3.48,1.88,5.16,1.18-.55,1.73-1.68,2.49-2.54,.53-.6,1.01-1.25,1.57-1.82,.29-.3,.71-.32,1.06-.08,.51,.35,.45,.85,.13,1.3-.92,1.31-1.87,2.6-2.91,4.03,.93,.54,1.74-.05,2.54-.12,.66-.07,1.33-.25,1.98-.23,.58,.03,1.16,.33,1.08,1.1-.06,.59-.54,.72-1.06,.81-1.3,.23-2.58,.54-4.16,.88,.77,.98,1.62,1.1,2.32,1.47,.54,.29,1.01,.73,.69,1.42-.3,.66-.94,.61-1.52,.42-.72-.23-1.44-.49-2.15-.73-.13-.11-.27-.34-.38-.32-.38,.08-.32,.38-.21,.66Z"/><path class="cls-1" d="M44.01,10.98c-1.22-1.64-2.62-1.94-3.66-2.76-.97-.76-3.03-1.28-2.12-2.82,.99-1.68,2.32,0,3.36,.61,1.76,1.04,3.26,2.55,5.5,3.15,1.04-1.89,.62-3.99,.93-5.96,.11-.72,.08-1.46,.16-2.18,.05-.51,.28-.96,.85-1.02,.72-.08,1.23,.39,1.32,.99,.14,.95,.04,1.93,.07,2.9,.04,1.67-.53,3.35,0,5.2,2.02-.39,3.9-.77,5.8-1.11,.63-.11,1.27-.01,1.53,.67,.37,.96-.39,1.3-1.05,1.57-1.55,.64-3.35,.45-4.77,1.33-.34,1.24,.6,1.6,1.18,2.12,1,.89,2.08,1.68,3.06,2.6,.55,.51,.91,1.27,.23,1.91-.47,.45-1.13,.3-1.67-.07-1.68-1.14-3.06-2.71-5.24-3.76-.7,2.24-.02,4.27-.13,6.25-.06,1.15,.43,2.89-1.17,2.98-1.8,.1-1.15-1.7-1.28-2.79-.13-1.06,.18-2.19-.61-3.5-1.6,.86-2.73,2.19-3.84,3.54-.46,.56-.94,1.11-1.45,1.63-.38,.38-.9,.43-1.33,.16-.44-.28-.55-.79-.42-1.29,.26-.98,.92-1.7,1.61-2.4,1.37-1.37,2.8-2.7,3.95-4.66-2.25-.39-4.07,.79-6.02,1.01-1.34,.15-3.38,1.55-3.88-.21-.65-2.26,1.98-1.8,3.27-2.3,1.79-.68,3.66-1.15,5.84-1.81Z"/></svg>