<?xml version="1.0" encoding="utf-8"?>
<!-- Generator: Adobe Illustrator 26.5.0, SVG Export Plug-In . SVG Version: 6.00 Build 0)  -->
<svg version="1.1" id="Ebene_1" xmlns="http://www.w3.org/2000/svg" xmlns:xlink="http://www.w3.org/1999/xlink" x="0px" y="0px"
	 viewBox="0 0 597.2 841.9" style="enable-background:new 0 0 597.2 841.9;" xml:space="preserve">
<style type="text/css">
	.st0{fill:#FFFFFF;}
	.st1{fill:#BCBFE1;}
	.st2{fill:#304F9E;}
	.st3{fill:#96AAD8;}
	.st4{fill:#9BB4DF;}
</style>
<g>
	<path class="st0" d="M7.9,180.8c4.1,6.1,8.1,12.3,12.2,18.5c2.4,3.6,5.5,5.7,9.5,6.5c4.5,0.9,9,0.7,13.5,1.2
		c8.5,0.9,17,1.6,25.5,0.6c3.3-0.4,6.6-0.4,9.9,0.1c6.3,0.9,12.7,1.1,18.9,0.3c10.7-1.4,21,0.1,31.3,3.4s20.2,7.8,30.5,11.2
		c9.8,3.2,19.6,6.2,29.7,7.6c9.6,1.3,18.9,3.4,28.2,6.2c3.6,1.1,7.2,2.1,10.4,4.2c5.1,3.4,10.7,4.5,16.6,4.7c3.4,0.2,5.8-1.2,7.9-4
		c1.2-1.7,2.3-3.4,3.1-5.4c2.2-5.4,4.5-11,5-16.9c0.7-8.1,3-15.8,4.8-23.6c1.6-7.1,5.5-12.3,12-14.3c4.5-1.4,8.9-3.4,13-5.9
		c11-6.7,22.9-9.1,35.2-10.2c7.2-0.6,14.6-0.5,21.6-3.1c13.2-4.9,26.3-9.9,39-16c8.6-4.1,17.3-7.9,26.6-9.5c8.6-1.4,16.9-4,25.1-6.9
		c4.4-1.6,7.7-4.6,10.5-8.5c0.4-0.5,0.7-1,0.9-1.5c13.7-7.4,24.9-19.4,38.6-26.7c2.5-1.3,5-2.5,7.8-2.8c2.6-0.3,5.2-0.2,7.8,0.1
		c6.4,0.7,12.7,2.3,18.8,4.4c5.4,1.9,11.1,4.1,15,8.7c1.5,1.7,2.6,3.7,3.6,5.8c0.7,1.6,1.6,3,2.9,4.1c2.2,1.8,5.1,2.4,7.7,3
		c3.1,0.6,6.4,0.7,9.5,0.7c7.1,0,14.5-0.8,21.5,1.1c6.2,1.6,11.1,6.1,15,11.4V0H0v171.8C3,174.4,5.7,177.3,7.9,180.8z"/>
	<path class="st0" d="M576.8,528.4l-82.8-5.9l-62,77.7l-153.1,39.7l-96-55l-134.2-6.2c-1.3-0.6-2.5-1.3-3.7-2c-3-1.8-5.8-3.8-8.5-6
		c-1.3-1-2.6-2-3.8-3.2c-1.2-1.1-2.4-2.4-3.4-3.6c-2-2.5-3.8-5.1-5.5-7.8c-1.8-2.8-3.6-5.7-5.6-8.4c-0.9-1.2-1.8-2.5-2.9-3.6
		c-1-1.1-2.1-2-3.2-3c-2.4-2-5.1-3.7-7.8-5.3c-1.4-0.8-2.8-1.7-4.2-2.5v308.6h597.2V526.2L576.8,528.4L576.8,528.4z"/>
</g>
<g>
	<path class="st0" d="M544.8,481.4l45.7,39.3c0,0,11.5,11.9,0,13.5s-39.5,6.2-39.5,6.2l-42.4,25.3l-7.3-19.5"/>
	<polyline class="st0" points="544.8,489.3 544.8,506.8 539.4,530.8 510.4,566.8 506.4,565.3 	"/>
	<path class="st0" d="M372.4,683.7L372.4,683.7l-0.2-0.1l-68.1-33.1l-3.4-26.8l-2.6-20.5l-0.7-5.7l-1.1-8.5l-0.2-1.9l-0.8-6.2l-1-8
		l-0.5-4l58.6-27.3l40.1-18.7l0.5-0.4l4.9-3.8l7.7-6l15.5-12l5.7-4.4l41.8-32.4l5,0.5l43.5,4.1h0h0h0.1l5.4,0.5l22.3,12.2l-6.6,46.5
		l-2.5,3.1l-26.1,33.6l-1.2,1.1l-6.8,6.3l-63.5,58.9l-1.9,1.5l-51.2,41.5l-2.7,2.2l0,0l-8.3,6.7L372.4,683.7L372.4,683.7z"/>
	<g>
		<path class="st0" d="M278.7,585.7c-1.2-2.1-2.2-4.4-2.4-6.9c-0.2-2.4,0.5-5,2.4-6.7c1.5-1.4,3.7-1.9,5.8-1.9
			c3.2,0,6.2,1.2,9.2,2.4c4,1.6,8.1,3.4,11.4,6.2c4.7,3.9,15,26.9,3.3,26.7C296.6,605.4,284.3,595.7,278.7,585.7L278.7,585.7z"/>
		<path class="st1" d="M259.7,552.6c0,0-0.1,0-0.1,0h-0.1c0,0.2,0,0.5,0,0.7c0.1,0.1,0.1,0.1,0.2,0.2L259.7,552.6L259.7,552.6z"/>
		<path class="st2" d="M99.9,471.4c1,0.8,1.8,1.7,2.1,3c0.2,0.6,0.3,1.2,0.3,1.8c0.2,1.8-0.3,3.4-1.8,4.5c-0.4,0.3-0.9,0.6-1.3,1
			c-0.8,0.6-1.4,1.4-1.8,2.4c-0.5,1.1-0.4,2.3,0.4,3.3c0.6,0.9,1.2,1.7,2,2.5c2.1,2.2,2.1,2.4,2.7,5.3c0.1,0.5,0.1,0.9,0,1.4
			c-0.3,1.3-0.6,2.6-1.2,3.9c-0.8,1.8-1.5,3.7-2,5.6c-0.4,1.3-1.1,2.6-2.1,3.5c-1.3,1.2-2.6,2.5-3.9,3.6c-1.2,1-2.3,1.9-3.6,2.8
			c-1.4,0.9-2.9,1.9-4.3,2.8c-1.7,1.1-3.2,2.3-4.7,3.6c-1.1,1-2.1,2.1-3.3,3c-0.7,0.5-1.2,1.2-1.7,2c-0.2,0.2-0.2,0.5,0,0.7
			s0.5,0.2,0.7,0.1c0.5-0.2,1-0.5,1.5-0.7c0.7-0.3,1.3-0.7,2-0.9c1.5-0.3,2.9-0.7,4.5-0.9c2.7-0.3,5.4-0.6,8.1-0.9
			c3.7-0.4,7.4-0.7,11.1-0.8c2.4-0.1,4.8-0.3,7.2-0.5c1.9-0.2,3.8-0.6,5.7-1c1.8-0.4,3.6-0.5,5.4-0.5c2.5-0.1,4.9-0.5,7.4-0.7
			c3.4-0.3,6.8-0.9,10.1-2c0.9-0.3,1.7-0.6,2.6-0.9c0.3-0.1,0.6-0.2,0.8-0.3c0.4-0.2,0.7-0.3,1-0.5c0.2-0.1,0.4-0.2,0.6-0.4
			c-0.1-0.5-0.6-0.6-0.9-0.8c-0.9-0.5-1.8-1-2.6-1.7c-1.3-1.1-2.8-1.9-4.3-2.8c-2.1-1.2-3.9-2.7-5-5c-0.3-0.7-0.8-1.4-1.2-2
			c-1.6-2.3-3.7-4.2-5.5-6.3c-1-1.1-2-2.3-2.9-3.5c-2.1-2.8-4.2-5.7-6.2-8.5c-1.8-2.5-3.7-4.8-5.7-7.1c-2-2.5-4-4.9-6.3-7.1
			c-1.2-1.1-2.4-2-3.7-2.9c-0.7-0.5-0.9-0.4-1.7,0.1C98.6,470.1,99.2,470.8,99.9,471.4L99.9,471.4z"/>
		<path class="st2" d="M177.8,527.7c-4.2,4.7-8.2,9.6-12.5,14.2c-3.6,4-7.4,7.9-11.2,11.7c-3.5,3.5-6,7.5-7.6,12.1
			c-0.6,1.7-1,3.5-1.9,5.1c-1.6,2.8-1.6,5.9-1.6,8.9c0,0.1,0,0.1,0,0.2c0.1,0.2,0.1,0.5,0.4,0.5c0.3,0.1,0.5-0.1,0.7-0.3
			c0.3-0.5,0.6-1,0.9-1.5c1.2-2.3,3-3.8,5.6-4.3c1.1-0.2,2.2-0.7,3.2-1.2c0.8-0.4,1.6-0.8,2.4-1.1c2.9-1.4,5.5-3.3,7.8-5.5
			c0.6-0.6,1.1-1.3,1.6-2c1.7-3,2.8-6.2,3-9.7c0.1-3,0.8-5.9,1.9-8.6c0.7-1.8,1.7-3.3,2.7-5c1-1.8,2.3-3.3,4.3-4.1
			c2.1-0.9,3.8-2.5,5.4-4.2c0.7-0.7,1.1-1.5,1.4-2.4c0.3-1.2,0.6-2.5,0.6-3.8c0-2.7,0.8-5.2,2.5-7.3c0.9-1.2,2.1-1.4,3.4-1.1
			c0.6,0.1,1.1,0.3,1.7,0.5c1.7,0.8,3.3,0.5,4.8-0.4c0.2-0.1,0.6-0.2,0.5-0.6c-0.4,0-0.7,0-1.1,0c-0.9,0.1-1.7-0.2-2.3-0.7
			c-1.9-1.4-4-2.6-5.4-4.7c-0.6-0.9-1.2-0.8-1.6,0.2c-0.5,1.4-1.3,2.7-2,4C183.2,520.6,180.8,524.4,177.8,527.7L177.8,527.7z"/>
		<path class="st2" d="M151.8,516.5c-1.6,1.5-3,3.2-3.9,5.2c-0.9,1.9-2.1,3.5-3.6,5.1c-1.6,1.7-3.1,3.5-4.5,5.4
			c-0.7,1-1.5,1.9-2.5,2.7c-0.8,0.6-1.6,1.3-2.3,2c-1,1-2,1.8-3.3,2.3c-0.2,0.1-0.4,0.2-0.6,0.4c-0.1,0.1-0.2,0.3-0.1,0.5
			c0.1,0.2,0.2,0.3,0.5,0.3c0.4,0,0.7-0.2,1-0.3c2.1-1,4.4-1.7,6.6-2.2c2.1-0.5,4.1-0.9,6.1-1.5c0.8-0.2,1.5-0.4,2.3-0.5
			c3.5-0.6,6.9-1.3,10.2-2.7c1.1-0.5,2.2-0.8,3-1.7c1.4-1.6,3.2-2.8,4.9-4c1.7-1.2,3.2-2.6,4.8-4c0.5-0.5,1-0.9,1.6-1.4
			c-0.1-0.2-0.3-0.2-0.5-0.2c-1.7,0.1-3.4-0.3-5.1-0.6c-1.5-0.2-2.8-0.7-4.1-1.4c-1.7-1-3.4-1.8-5.4-2c-0.5,0-0.9-0.3-1.2-0.7
			c-0.4-0.6-1-0.8-1.6-1.1c-0.6-0.2-1.1-0.2-1.6-0.2C152.3,516.1,152,516.3,151.8,516.5L151.8,516.5z"/>
		<path class="st0" d="M517.5,469.7c0.4,1,0.8,1.9,1.2,2.9s0.8,1.9,1.3,2.9c0.1,0.2,0.2,0.4,0.3,0.5v-1.8c-0.2-0.4-0.4-0.9-0.6-1.3
			c-0.8-1.4-1.6-2.8-2.5-4.2c-0.1-0.1-0.2-0.3-0.3-0.5C517.1,468.8,517.3,469.3,517.5,469.7L517.5,469.7z"/>
		<path class="st0" d="M519.7,475.2c-0.5-0.9-0.9-1.9-1.3-2.9c-0.4-1-0.8-1.9-1.2-2.9c-0.2-0.5-0.4-1-0.7-1.5
			c-0.7-1.1-1.5-2.1-2.2-3.1c-1-1.3-2-2.5-3.1-3.8c-0.2-0.2-0.4-0.4-0.6-0.7c-0.9-0.5-1.7-1-2.5-1.7c-2.5-2.1-5.1-4.2-7.5-6.6
			c-0.9-0.8-1.6-1.8-2.4-2.8c-2-2.6-4.1-5-6.6-6.6c-1.1-0.8-2.2-1.8-3.2-2.7c-3.1-2.7-6.8-4.1-10.2-5.9c-1.7-0.9-3.4-1.7-5.2-2.5
			c-2.8-1.3-5.7-1.1-8.5-0.5c-4.1,0.9-7.8,3.1-11.3,6.1c-3.2,2.8-6.1,6.1-9.2,9c-2.9,2.8-5.9,5.5-9.1,7.6c-4,2.6-7.7,6-11.6,8.9
			c-2.2,1.7-4.4,3.3-6.7,5c-0.4,0.3-0.8,0.5-1.2,0.6c-2.5,0.5-5,1.4-7.5,1.6c-2.2,0.2-4.4,0.9-6.5,1.7c-2.8,1.1-5.7,1.8-8.7,1.9
			c-1.7,0-3.5,0.1-5.2,1c-1.2,0.6-2,1.6-2.4,3.1c-1.2,4.6-3.4,8.4-6.1,11.6c-2.9,3.5-5.6,7.1-8.9,9.8c-1.1,0.9-2.1,1.4-3.4,1.4
			c-2.1,0-4.2-0.3-6.2,0.9c-2.8,1.6-5.4,3.7-7.7,6.4c-1,1.2-2.1,2.3-3,3.7c-1.1,1.8-2,3.8-3,5.8c-1.7,3.4-3.9,6.2-6.2,8.8
			c-6.5,7.1-13.9,12.3-21.5,16.9c-8,4.8-16,9.5-24.1,14c-4.3,2.4-8.5,5.3-12.6,8.5c-1.2,0.9-2.4,1.8-3.6,2.7c3.4,2.6,6.3,5.5,9,8.7
			c0.7,0.8,1.4,1.6,2,2.5c1,1.2,1.9,2.5,2.8,3.8c0.4-0.4,0.8-0.8,1.3-1.2l0,0c0.3-0.2,0.6-0.4,0.9-0.6c2.6-1.4,5.1-2.9,7.8-4
			c1.9-0.8,4-0.9,6.1-1.4c5.3-1.2,10.6-2.2,15.8-4.4c1-0.4,1.9-0.7,2.9-0.9c2.8-0.6,5.3,0.2,7.4,2.8c0.3,0.3,0.6,0.7,0.9,1
			c0.8,1,1.6,1.8,2.6,2.4c6.9-3,13.7-6.1,20.5-9c6-2.6,12.4-4.3,18.3-7.1c3.4-1.7,6.9-3.3,10.2-5c0-0.7,0-1.3,0-2
			c0-1.4,0.6-2.3,1.5-2.8c0.5-0.3,1-0.5,1.6-0.8c2.2-1,4.2-2.3,6.1-4c3-2.7,6.3-4.6,9.6-6.6c2.3-1.4,4.4-3,6.3-5.2
			c3-3.7,6.6-6.2,10.4-8.2c5.6-3.1,10.3-7.7,13.8-14.4c1.7-3.2,3.8-5.7,6.1-8c4.6-4.8,9.3-9.3,13.8-14.2c2.3-2.5,4.9-4.3,7.6-5.7
			c1.9-1,3.8-2,5.7-3c1.7-0.9,3.4-1.5,5.1-1.8c1.6-0.3,3.1-0.3,4.6,0.5c1.3,0.7,2.6,1.3,3.9,2c2.4,1.3,4.9,2.5,7.4,3.2
			c2.9,0.9,5.6,2.5,7.4,5.9c1.2,2.3,3.1,3.3,5.1,3.9c1.7,0.5,3.4,0.9,5.1,1.2c2.4,0.4,4.7,1.2,7,2.1c1.9,0.7,3.6,2,5,3.7v-25.4
			C520.1,475.9,519.9,475.6,519.7,475.2L519.7,475.2z M423,479.7c-0.4,1.9-1.1,3.7-2,5.3c-0.9,1.6-1.5,3.4-1.9,5.3
			c-0.4,1.9-0.3,3.7,0.5,5.2c1,2,1.3,4.1,1.3,6.4c0,2.5-0.9,4-2.4,5c-0.7,0.5-1.5,0.7-2.2,1c-5.3,2.1-10.5,4.2-15.4,7.6
			c-1.9,1.3-3.8,2.7-5.7,4c-1.4,0.9-2.3,2.3-2.7,4.2c-0.3,1.5-0.7,2.9-1.1,4.4c-0.8,3.1-2.4,5.2-4.7,6.3c-5.3,2.5-10.6,4.7-16.3,5.4
			c-2.6,0.3-5.3,0.9-7.9,1.7c-0.5,0.2-1.1,0.3-1.6,0.7c-2,1.8-4.2,3.2-6.1,5.4c-1.1,1.3-2.4,1.9-3.8,1.9c-1.4,0-2.1-1.5-1.4-3
			c1.4-2.6,2.6-5.5,4.2-7.9c1.6-2.3,3.5-3.8,5.8-4.5c0.9-0.3,1.8-0.6,2.8-0.9c1-0.3,2.1-0.8,2.9-1.7c3.3-3.7,7.1-6,11-8.2
			c2.8-1.6,5-3.9,6.7-7.3c1.5-3.3,3.6-6.1,5.4-9.2c0.5-0.8,1.1-1.2,1.7-1.8c1.4-1.3,2.7-2.5,4.1-3.8c0.6-0.6,1.1-1.2,1.5-2
			c1.2-2.5,2.7-4.8,3.6-7.6c1.2-3.8,3.5-6.2,6.3-7.7c4.5-2.5,9.1-4.8,13.6-7.1c0.7-0.3,1.4-0.7,1.9-0.6
			C422.6,476.4,423.3,477.7,423,479.7L423,479.7z"/>
		<path class="st3" d="M364.6,688.8c-0.8,0.5-1.6,1-2.4,1.5c3.5-1.7,6.7-3.8,9.8-6.4C369.7,685.6,367.1,687.2,364.6,688.8
			L364.6,688.8z"/>
		<path class="st3" d="M339.8,706c1.8-1.5,3.7-3.1,5.5-4.5c2-1.6,3.9-3.1,5.9-4.6c-2.5,1.4-5,2.8-7.6,4.1c-1.7,1.9-3.3,3.9-5,5.7
			c0.3-0.1,0.6-0.3,0.9-0.5C339.6,706.2,339.7,706.1,339.8,706L339.8,706z"/>
		<path class="st3" d="M379.8,675.3c-0.3,0.6-0.7,1.2-1.1,1.8c0.9-0.7,2-1,3.2-1c0.4,0,0.8-0.1,1.2-0.1c2.3-0.4,4.6-1,6.9-1.3
			c0,0,0.1,0,0.2,0c10.3-9.1,20.6-18.1,30.9-27.2c5.4-4.8,10.6-9.7,15.7-14.8c-2.1-1.2-4.3-2.3-6.7-2.6c-1.4-0.2-2.5-1.1-3.4-2.4
			c-1.8-2.5-3.6-5-5.4-7.5c-1.1-1.6-2.3-3-3-4.9c-0.8-2.1-2.3-3.2-4-3.7c-0.9-0.3-1.7,0-2.5,0.8c-1.7,1.8-2.8,4.1-2.8,7
			c0,4.4-0.4,8.8-0.7,13.1c-0.3,3.9-0.9,7.8-1.6,11.6c-0.3,1.6-1,2.7-2.1,3.4c-2.6,1.7-5.4,2.8-8.2,3.6c-3.6,1.1-7.4,1.4-11,2.3
			c-2.6,0.7-5.1,1.5-7,4.1c-0.3,0.4-0.6,0.9-0.9,1.3C382,662.5,382.7,669.9,379.8,675.3L379.8,675.3z"/>
		<path class="st3" d="M507.5,568.5c1-0.5,1.9-1.1,2.9-1.7c-0.5-0.6-1.1-1-1.9-1.1c-0.7-0.1-1.4-0.4-2.1-0.4c-3.6,0-7-1.2-10.6-1.6
			c-3.3-0.4-6.4-1.9-9.7-2.2c-2.4-0.3-4.8-0.9-7-1.8c-2.3-0.9-4.5-1.2-6.9-1.3c-3.6-0.2-6.5,1.8-9.3,4.2c-0.9,0.8-1.5,1.9-1.6,3.4
			c-0.1,1.4-0.5,2.5-1.2,3.6c-0.5,0.9-1,1.7-1.5,2.6c-1.8,2.8-3.3,5.9-5.3,8.5c-1.3,1.6-2.7,3-4.5,4.3c0.1-1.2,0.2-2,0.1-2.7
			c-0.3-5.5,0.4-10.8,0.8-16.2c0.1-2,0.5-4,0-6.1c-0.5-2-1.3-2.6-2.8-2c-3,1.4-5.9,3-8.4,5.8c-1.6,1.8-3.3,3.5-5.4,4.2
			c-2.8,1.1-5.7,1.9-8.6,2.5c-5.4,1-10.6,2.5-15.5,5.6c-1.9,1.2-3.5,2.7-4.8,4.9c-1.8,3.1-3.7,6.1-6.1,8.3c-1.3,1.2-2.6,2.2-3.9,3.3
			c-0.8,0.7-1.4,1.4-1.7,2.6c-0.4,1.4-0.2,2.3,0.8,2.9c0.9,0.6,1.7,1.4,2.5,2.2c1.9,2.1,4.1,3.2,6.6,3.3c2.4,0.2,4.8,0.3,7.1,1.3
			c0.8,0.3,1.6,0.3,2.5,0.3c1.8-0.1,3.4,0.5,5,1.5c3.6,2.1,7,4.5,10.1,7.6c0.6,0.6,1.2,1.1,1.9,1.5c3.8,2.1,7.3,5,10.8,7.8
			c1.1,0.9,2.2,1.8,3.3,2.6c7.9-8.1,15.5-16.4,23.2-24.7C478.4,588.4,491.9,577.3,507.5,568.5L507.5,568.5z"/>
		<path class="st3" d="M550.5,522.3c-0.6-0.9-1.3-1.8-2-2.5c-1.2-1.2-2.2-2.8-2.9-4.8c-1.5-4.1-2.9-8.2-5.4-11.3
			c-3.2-3.9-6.3-8.2-9.3-12.4c-0.2-0.3-0.4-0.5-0.6-0.8c-1.5-2-3.3-3.5-5.4-4.3c-2.5-1-5-2-7.5-2.5c-1.8-0.4-3.7-0.9-5.5-1.5
			c-2.2-0.6-4.1-1.9-5.5-4.5c-2-3.9-4.8-5.8-8-6.8c-2.8-0.9-5.4-2.2-8-3.7c-1.4-0.8-2.8-1.5-4.2-2.3c-1.6-0.9-3.3-0.9-5-0.6
			c-1.9,0.4-3.7,1.1-5.5,2.1c-2.1,1.1-4.1,2.3-6.2,3.4c-3,1.6-5.8,3.8-8.2,6.6c-4.8,5.7-9.9,11-14.8,16.5c-2.5,2.7-4.8,5.7-6.6,9.3
			c-3.8,7.7-8.8,13-14.8,16.7c-4,2.4-7.9,5.3-11.1,9.6c-2,2.6-4.3,4.4-6.8,6.1c-3.5,2.3-7.1,4.6-10.3,7.7c-2,2-4.2,3.5-6.5,4.7
			c-0.6,0.3-1.1,0.6-1.7,0.9c-1.1,0.6-1.6,1.7-1.7,3.3c0,0.8,0,1.5,0,2.3c0,1.4,0,2.7,0.2,4.1c0,1,0,2,0,3.1s0,2,0,3.1
			c0.1,2.7,1.4,4.7,3.2,5c1.5,0.2,3,0.6,4.4,1.2c2.6,1.1,5.2,0.8,7.7-0.5c1.5-0.8,2.9-2,4.3-3.2c1.9-1.8,4-2.5,6.3-2.5
			c0.8,0,1.7,0,2.5,0c3.4-0.1,6.7-0.7,9.8-2.5c3.5-1.9,7-3.8,10.6-5.6c2.4-1.3,4.6-3.2,6.6-5.5c3.1-3.5,6.1-7.3,9.1-11.1
			c1.6-2.1,3.4-3,5.6-2.2c2.4,0.8,4.8,1.4,7.2,1.9c4.3,1,8.6,1.4,12.8-0.1c3.6-1.2,7.2-2.2,10.8-3.5c4.4-1.6,8.8-3.6,12.4-7.6
			c5.2-5.8,11-9.9,16.8-14.1c1.1-0.8,2.1-0.9,3.3-0.6c2.2,0.7,4.3,1.7,6.4,2.6c7.1,3.2,14,7.1,21.1,10c0.4,0.2,0.8,0.2,1.2,0.2
			c0.6,0,1-0.3,1.3-1.1C551.1,523.5,550.9,522.9,550.5,522.3L550.5,522.3z"/>
		<path class="st3" d="M391.4,528.3c0.4-1.5,0.8-2.9,1.1-4.4c0.4-2,1.3-3.3,2.7-4.2c1.9-1.3,3.8-2.7,5.7-4
			c4.9-3.4,10.1-5.5,15.4-7.6c0.7-0.3,1.5-0.5,2.2-1c1.5-1,2.5-2.6,2.4-5c0-2.3-0.3-4.5-1.3-6.4c-0.8-1.6-1-3.3-0.5-5.2
			c0.4-1.9,1-3.7,1.9-5.3c0.9-1.6,1.6-3.4,2-5.3c0.4-2-0.3-3.3-2-3.3c-0.5,0-1.2,0.3-1.9,0.6c-4.5,2.3-9.1,4.6-13.6,7.1
			c-2.8,1.5-5.1,3.9-6.3,7.7c-0.9,2.8-2.4,5.1-3.6,7.6c-0.4,0.8-0.9,1.5-1.5,2c-1.4,1.3-2.7,2.6-4.1,3.8c-0.6,0.5-1.2,1-1.7,1.8
			c-1.8,3-3.9,5.9-5.4,9.2c-1.6,3.5-3.9,5.7-6.7,7.3c-3.9,2.2-7.7,4.6-11,8.2c-0.8,0.9-1.8,1.4-2.9,1.7c-0.9,0.3-1.8,0.6-2.8,0.9
			c-2.3,0.7-4.2,2.2-5.8,4.5c-1.7,2.4-2.9,5.2-4.2,7.9c-0.8,1.5,0,3,1.4,3c1.4,0,2.8-0.6,3.8-1.9c1.8-2.2,4.1-3.5,6.1-5.4
			c0.5-0.4,1-0.6,1.6-0.7c2.6-0.8,5.2-1.3,7.9-1.7c5.6-0.7,11-2.9,16.3-5.4C389,533.6,390.6,531.4,391.4,528.3L391.4,528.3z"/>
		<path class="st3" d="M335.4,574.5c-0.3-0.4-0.6-0.7-0.9-1c-2.1-2.5-4.6-3.4-7.4-2.8c-1,0.2-2,0.5-2.9,0.9
			c-5.1,2.2-10.5,3.2-15.8,4.4c-2,0.5-4.1,0.6-6.1,1.4c-2.6,1.1-5.2,2.6-7.8,4c-0.3,0.2-0.6,0.4-0.9,0.6l0,0
			c-0.5,0.3-0.9,0.7-1.3,1.2c1,1.4,1.9,2.8,2.9,4.3c1.2-0.4,2.4-0.4,3.7-0.3c0.1,0,0.2,0,0.2,0c0,0,0,0,0.1,0c0.9,0,1.8,0.3,2.5,1.1
			c1.3,1.4,2.6,2.8,3.5,4.7c0,0.1,0.1,0.2,0.2,0.3c1.6,3.5,4,5,6.4,4.9c2.9-0.1,5-0.7,7.1-1.7c6.7-3.1,12.7-8,18.8-12.5
			c1-0.7,1.9-1.6,2.6-2.7c1-1.5,0.7-3-0.8-3.4c-0.5-0.2-1-0.4-1.5-0.7C337,576.4,336.2,575.5,335.4,574.5L335.4,574.5z"/>
		<path class="st3" d="M387.1,574.4c-1.3-1.3-2.7-2.4-4.1-3.4c-1-0.8-2.1-1.3-3.3-1.4c-1.8-0.1-3.4-0.8-4.9-1.8
			c-0.9-0.6-1.9-1-2.9-0.9c-1.2,0-2.2,0.3-3.3,0.8c-2.2,1.1-4.3,2.5-6.3,4c-2.3,1.8-4.8,3.4-7.4,4.5c-1.8,0.8-3.7,1.1-5.4,2.1
			c-0.6,0.4-1.1,0.6-1.1,1.6c0.1,1,0.5,1.8,1.2,2.1c0.5,0.2,1,0,1.5,0c1.7-0.1,3.3-1,5-0.3c1.9,0.7,3.8,1.4,5.6,2.2
			c3.4,1.5,6.3,4.3,9.1,7.2c2.7,2.8,5.6,5,9,6.1c1.8,0.6,3.3,0,4.7-1.5c0.7-0.8,1.4-1.7,1.8-2.8c1-2.4,2.2-4.5,3.8-6.4
			c1.1-1.4,2-3.1,2.8-4.9c0.8-1.8,0.5-2.9-1-3.6C390.1,577.1,388.6,575.8,387.1,574.4L387.1,574.4z"/>
		<path class="st2" d="M297.5,591c-0.8-1.2-1.5-2.5-2.3-3.7c-0.9-1.5-1.9-2.9-2.9-4.3c-0.9-1.3-1.8-2.6-2.8-3.8
			c-0.6-0.8-1.3-1.7-2-2.5c-2.6-3.1-5.6-6.1-9-8.7c-0.9-0.7-1.9-1.4-2.9-2.1c-3.6-2.4-7.1-4.7-10.4-7.1c-2-1.8-3.6-3.7-5.5-5.3
			c-0.1-0.1-0.1-0.1-0.2-0.2c-0.1-0.1-0.2-0.2-0.4-0.3c-0.7-0.6-1.5-1.1-2.3-1.5c-0.5-0.2-0.9-0.5-1.3-0.9c-2.2-2.3-4.6-4.5-6.9-6.8
			c-1.2-1.2-2.4-2.4-3.6-3.6c-1.3-1.4-2.8-2.4-4.4-3.3c-0.9-0.5-1.8-1-2.5-1.7c-1.1-1.2-2.5-2-3.9-2.7c-1.4-0.8-2.8-1.5-3.7-2.9
			c-0.2-0.3-0.5-0.6-0.8-0.8c-2-1.6-4-3.2-6-4.8c-1.9-1.5-3.9-2.9-6-4.2c-1.3-0.8-2.3-2-3.5-2.8c-2.2-1.5-4.3-3.1-6.6-4.5
			c-0.7-0.4-1.3-0.8-1.9-1.4c-0.5-0.4-1.1-0.8-1.7-1c-0.4-0.1-0.8,0-1.1,0.3c-0.3,0.3-0.3,0.5-0.1,0.9c1.2,1.6,2.8,2.7,4.2,4.2
			c0.4,0.5,0.9,1,1.4,1.3c1.9,1.2,3.2,2.8,4.1,4.8c0.7,1.7,1.5,3.4,2.5,4.9c1.1,1.6,2.2,3.3,3.2,5c0.5,0.8,0.8,1.6,0.8,2.5
			c0,1.1,0,2.2,0,3.4c-0.1,1.2-0.4,2.4-1.2,3.4c-1.3,1.6-2.4,3.4-3.4,5.2c-1.9,3.6-3.1,7.4-2.7,11.6c0,0.3,0.1,0.6,0.1,0.9
			c0.1,1.1,0.3,2.2,0.2,3.2c-0.1,2.1-0.9,3.8-3,4.7c-0.5,0.2-1,0.4-1.4,0.7c-1.8,0.8-3.5,1.9-4.9,3.3c-2.3,2.3-4.3,4.7-5.8,7.6
			c-0.4,0.8-1,1.5-1.8,2c-1.1,0.7-2.2,1.4-3.2,2.2c-1.1,0.8-2.3,1.4-3.6,1.8c-2.3,0.7-4.4,1.8-5.9,3.8c-1.9,2.7-4.4,4.8-6.8,6.9
			c-1.9,1.7-3.9,3.5-6,5c-0.1,0.1-0.2,0.2-0.3,0.3c-0.2,0.3,0,0.6,0.3,0.6c0.2,0,0.4-0.1,0.6-0.2c0.7-0.4,1.4-0.6,2.2-0.9
			c2.3-0.7,4.5-1.4,6.8-2.2c0.7-0.2,1.4-0.4,2.2-0.6c2.2-0.4,4.4-0.8,6.5-1.3c0.8-0.2,1.5-0.4,2.3-0.6c1.3-0.4,2.6-0.8,4-1.1
			c14.1,0.3,28.3,0.5,42.4,0.8c4.6,0.1,9.2,0.2,13.7,0.8c1.6,0.2,3.1,0.5,4.7,0.9c1.6,0.4,3.2,0.9,4.7,1.4c0.1,0,0.3,0.1,0.4,0.1
			c6.1,2.3,11.8,5.8,17.2,9.6c0.3,0.2,0.6,0.4,0.9,0.7c4.1,2.9,8,6,12,8.9c11.1,8.1,24.3,15.4,37.9,13.4c-0.1-0.3-0.1-0.5-0.2-0.8
			c-1.6-4.8-6.4-8-10.2-11.4c-2.3-2-4.3-4.2-6.2-6.5c-4.2-5-7.6-10.4-11-15.9C299.5,594.2,298.5,592.6,297.5,591z"/>
		<path class="st4" d="M377.3,658.8c-0.5-0.4-1-0.7-1.6-1c-2-1-4.2-1.3-6.2-2c-7.9-2.7-12.7-10.2-19.2-15.2c-6.5-5-14.8-7.4-22.3-11
			c0.1,0.3,0.2,0.5,0.2,0.8c-13.6,2-26.8-5.3-37.9-13.4c-4-2.9-8-6-12-8.9c-0.3-0.2-0.6-0.4-0.9-0.7c-5.5-3.8-11.1-7.3-17.2-9.6
			c-0.1,0-0.3-0.1-0.4-0.1c-1.5-0.5-3.1-1-4.7-1.4c-1.6-0.4-3.1-0.7-4.7-0.9c-4.5-0.6-9.1-0.7-13.7-0.8c-14.1-0.3-28.3-0.5-42.4-0.8
			c-1.3,0.4-2.6,0.8-4,1.1c-0.8,0.2-1.5,0.4-2.3,0.6c-2.1,0.5-4.3,1-6.5,1.3c-0.8,0.1-1.5,0.3-2.2,0.6c-2.2,0.8-4.5,1.5-6.8,2.2
			c-0.8,0.2-1.5,0.5-2.2,0.9c-0.2,0.1-0.3,0.2-0.6,0.2c-0.3,0-0.5-0.3-0.3-0.6c0.1-0.1,0.2-0.2,0.3-0.3c2.1-1.5,4.1-3.3,6-5
			c2.4-2.1,4.9-4.2,6.8-6.9c1.4-2,3.6-3.1,5.9-3.8c1.3-0.4,2.5-1,3.6-1.8c1-0.8,2.1-1.5,3.2-2.2c0.8-0.5,1.3-1.1,1.8-2
			c1.5-2.9,3.5-5.3,5.8-7.6c1.4-1.4,3.1-2.5,4.9-3.3c0.5-0.2,0.9-0.5,1.4-0.7c2.1-0.9,2.9-2.6,3-4.7c0-1.1-0.1-2.2-0.2-3.2
			c0-0.3-0.1-0.6-0.1-0.9c-0.4-4.2,0.8-7.9,2.7-11.6c1-1.9,2.1-3.6,3.4-5.2c0.8-1,1.2-2.1,1.2-3.4c0.1-1.1,0-2.2,0-3.4
			c0-0.9-0.3-1.8-0.8-2.5c-1.1-1.7-2.1-3.4-3.2-5c-1.1-1.5-1.8-3.2-2.5-4.9c-0.9-2-2.2-3.7-4.1-4.8c-0.6-0.4-1-0.9-1.4-1.3
			c-1.3-1.5-2.9-2.6-4.2-4.2c-0.2,0.3-0.3,0.7-0.4,1.1c-0.3,0.8-0.6,1.6-1.3,2.2c-0.1,0.1-0.2,0.2-0.3,0.4c-0.6,1.2-1.6,2-2.7,2.7
			c-0.1,0-0.1,0.1-0.2,0.2c0.1,0.4-0.3,0.5-0.5,0.6c-1.5,0.9-3.1,1.2-4.8,0.4c-0.5-0.2-1.1-0.4-1.7-0.5c-1.4-0.3-2.5,0-3.4,1.1
			c-1.7,2.2-2.5,4.6-2.5,7.3c0,1.3-0.3,2.5-0.6,3.8c-0.2,0.9-0.7,1.7-1.4,2.4c-1.6,1.6-3.2,3.2-5.4,4.2c-1.9,0.8-3.2,2.3-4.3,4.1
			c-0.9,1.6-1.9,3.2-2.7,5c-1.1,2.8-1.8,5.7-1.9,8.6c-0.2,3.5-1.2,6.7-3,9.7c-0.4,0.8-1,1.4-1.6,2c-2.3,2.3-4.9,4.2-7.8,5.5
			c-0.8,0.4-1.6,0.8-2.4,1.1c-1,0.5-2.1,1-3.2,1.2c-2.6,0.5-4.4,2-5.6,4.3c-0.3,0.5-0.6,1-0.9,1.5c-0.1,0.2-0.4,0.4-0.7,0.3
			c-0.3-0.1-0.3-0.3-0.4-0.5c0-0.1,0-0.1,0-0.2c0-3.1,0-6.1,1.6-8.9c0.9-1.6,1.3-3.4,1.9-5.1c1.6-4.7,4.1-8.7,7.6-12.1
			c3.8-3.8,7.6-7.7,11.2-11.7c4.2-4.7,8.3-9.5,12.5-14.2c3-3.4,5.4-7.2,7.5-11.2c0.7-1.3,1.5-2.5,2-4c-0.1-0.3-0.4-0.4-0.6-0.3
			c-0.5,0.1-1,0.2-1.4,0.4c-1.6,0.7-3.1,1.6-4.5,2.8c-2.2,2-4.5,4-7.2,5.3c-0.6,0.3-1.1,0.7-1.6,1c-0.5,0.5-1,0.9-1.6,1.4
			c-1.6,1.4-3.1,2.8-4.8,4c-1.7,1.2-3.4,2.5-4.9,4c-0.8,0.9-1.9,1.2-3,1.7c-3.3,1.4-6.7,2.1-10.2,2.7c-0.8,0.1-1.6,0.3-2.3,0.5
			c-2,0.6-4.1,1-6.1,1.5c-2.3,0.5-4.5,1.2-6.6,2.2c-0.3,0.2-0.7,0.3-1,0.3c-0.2,0-0.4-0.1-0.5-0.3c-0.1-0.2,0-0.3,0.1-0.5
			c0.2-0.1,0.4-0.3,0.6-0.4c1.3-0.5,2.3-1.4,3.3-2.3c0.7-0.7,1.5-1.4,2.3-2c1-0.7,1.8-1.7,2.5-2.7c1.4-1.9,2.9-3.7,4.5-5.4
			c1.4-1.5,2.7-3.2,3.6-5.1c0.9-2,2.2-3.7,3.9-5.2c0.2-0.2,0.5-0.4,0.6-0.7c-1.2,0-2.3,0.6-3.5,1c-1.3,0.4-2.5,0.4-3.8,0.2
			c-0.3,0-0.6-0.1-0.9-0.1c-0.2,0.1-0.4,0.3-0.6,0.4c-0.3,0.2-0.7,0.4-1,0.5c-0.3,0.1-0.6,0.2-0.8,0.3c-0.8,0.3-1.7,0.6-2.6,0.9
			c-3.3,1.1-6.6,1.7-10.1,2c-2.5,0.2-4.9,0.6-7.4,0.7c-1.8,0.1-3.6,0.2-5.4,0.5c-1.9,0.4-3.8,0.8-5.7,1c-2.4,0.2-4.8,0.5-7.2,0.5
			c-3.7,0.1-7.4,0.4-11.1,0.8c-2.7,0.3-5.4,0.6-8.1,0.9c-1.5,0.2-3,0.5-4.5,0.9c-0.7,0.2-1.3,0.6-2,0.9c-0.5,0.2-1,0.5-1.5,0.7
			c-0.2,0.1-0.5,0.1-0.7-0.1c-0.2-0.2-0.1-0.5,0-0.7c0.5-0.7,1-1.4,1.7-2c1.2-0.9,2.2-2,3.3-3c1.5-1.3,3.1-2.5,4.7-3.6
			c1.4-1,2.8-1.9,4.3-2.8c1.3-0.8,2.5-1.8,3.6-2.8c1.4-1.1,2.6-2.4,3.9-3.6c1-1,1.7-2.2,2.1-3.5c0.5-1.9,1.2-3.8,2-5.6
			c0.6-1.2,0.9-2.6,1.2-3.9c0.1-0.5,0.1-0.9,0-1.4c-0.6-3-0.6-3.1-2.7-5.3c-0.7-0.8-1.4-1.6-2-2.5c-0.7-1-0.8-2.1-0.4-3.3
			c0.4-0.9,1-1.7,1.8-2.4c0.4-0.4,0.9-0.7,1.3-1c1.5-1.1,2.1-2.7,1.8-4.5c-0.1-0.6-0.2-1.2-0.3-1.8c-0.3-1.3-1.2-2.2-2.1-3
			c-0.7-0.6-1.3-1.2-1.6-2.1c-0.4,0-0.7,0.2-0.8,0.5c-0.9,1.1-2.1,1.8-3.1,2.8c-1.4,1.3-2.7,2.7-4,4.1c-1.2,1.3-2.5,2.5-3.7,3.7
			c-1,1-2.2,1.8-3.4,2.5c-0.8,0.4-1.5,0.4-2.2-0.2c-0.4-0.3-0.8-0.6-1.1-1c-0.5-0.6-1.1-0.6-1.8-0.4c-1,0.5-2,1-2.6,2
			c-0.7,1.2-1.7,2.1-2.8,2.9c-2.4,1.8-4.6,3.7-6.8,5.8c-2.8,2.6-5.7,5-8.9,7.1c-3,2-5.8,4.2-8.8,6.3c-1.4,1.1-2.8,2.2-4,3.5
			c-2.7,2.9-5.7,5.3-8.9,7.5c-4.7,3.3-9.6,6.3-14.8,8.9v30.9c0,0.2,0,0.5,0,0.7c0,0.8,0.1,1.5,0.2,2.3c0.1,0.7,0.3,1.3,0.6,2
			c0.5,1.2,1.2,2.3,2.1,3.3c0.8,0.9,1.8,1.7,2.8,2.4c0.5,0.2,1.1,0.3,1.7,0.5c5.4,2.9,10.6,6,15.8,9.4c10.9,7,21.8,13.8,33.4,19.7
			c20.5,10.5,39.8,23.1,59.6,34.9c14.2,8.5,28.6,16.8,42,26.6c5.2,3.8,10.4,7.8,15.5,11.6c4.4,3.3,8.8,6.5,13.4,9.5
			c4.3,2.8,8.6,5.5,13.1,7.8c1.5,1.4,3.2,2.8,5.1,3.9c3.8,2.4,15.8,8.3,25.8,10.7c2.6,0.9,5.2,1.7,7.8,2.5c0.3,0.1,0.6,0.2,0.9,0.3
			c17.8,5.2,36.1,8.5,54.4,9.7c6.6,0.4,13.6,0.5,19.3-3.4c0.1,0,0.1-0.1,0.2-0.1c1.5-1,2.8-2.3,4-3.6c1.7-1.8,3.3-3.8,5-5.7
			c2.6-1.3,5.1-2.7,7.6-4.1c3.7-2.1,7.4-4.4,11-6.6c0.8-0.5,1.6-1,2.4-1.5c2.5-1.5,5-3.1,7.4-4.9c2.6-2,4.9-4.2,6.7-6.8
			c0.4-0.6,0.8-1.2,1.1-1.8C382.7,669.9,382,662.4,377.3,658.8L377.3,658.8z"/>
		<path class="st3" d="M443.1,626.2l35.1-32.5l14.9-13.8c0,0,7-7.2,12.2-10.2c5.2-3,3.3-4.1,3.3-4.1l-24.3,9.5l-33.9,43.4"/>
		<polygon class="st3" points="372,683.9 390.1,674.7 380.7,673.2 		"/>
	</g>
	<path class="st0" d="M543.3,491.8l1.5-2.5L543.3,491.8z"/>
	<polyline class="st0" points="543.3,488.7 544.8,489.3 543.3,492.9 	"/>
	<path class="st0" d="M540.5,527.9c0,0-0.7,2.1-0.8,2.2s-0.4-2.5-0.4-2.5l1.2-0.4"/>
	<polyline class="st0" points="539.7,530.2 539.5,530.5 539.4,530.6 539.5,529.9 539.4,529.7 539.7,529.9 539.7,530.1 	"/>
	<path class="st4" d="M25.1,565.7c0,0-25.1-25-25.1-30.2s31.9-14,31.9-14L25.1,565.7z"/>
	<polyline class="st0" points="548.4,484.5 521.8,461 510.4,454.4 491.7,442.6 486.1,445.2 525.6,484.5 552.1,494.4 	"/>
</g>
</svg>
