<?xml version="1.0" encoding="utf-8"?>
<!-- Generator: Adobe Illustrator 26.5.0, SVG Export Plug-In . SVG Version: 6.00 Build 0)  -->
<svg version="1.1" id="Ebene_1" xmlns="http://www.w3.org/2000/svg" xmlns:xlink="http://www.w3.org/1999/xlink" x="0px" y="0px"
	 viewBox="0 0 841.89 595.28" style="enable-background:new 0 0 841.89 595.28;" xml:space="preserve">
<style type="text/css">
	.st0{fill:#9BB4DF;}
</style>
<path class="st0" d="M0,0v196.25c11.94,6.09,22.78,14.55,33.07,24.3c11.31,10.73,21.79,22.63,32.65,33.99c1.62,1.7,3.26,3.36,4.91,5
	c1.53,0.95,3.05,1.9,4.56,2.88c7.9-0.75,15.64-0.82,22.48,0.64c0.47-0.28,0.94-0.56,1.42-0.82c10.11-5.52,19.7-12.15,28.77-19.87
	c4.7-3.99,9.19-8.26,13.12-13.32c1.8-2.32,3.74-4.42,5.86-6.29c4.27-3.77,8.47-7.66,12.89-11.17c4.67-3.72,9.04-7.86,13.11-12.52
	c3.16-3.62,6.46-7.08,9.98-10.23c1.59-1.42,3.06-3.1,4.11-5.17c0.91-1.8,2.32-2.79,3.85-3.59c0.98-0.51,1.91-0.37,2.66,0.64
	c0.49,0.66,1.06,1.2,1.61,1.77c1.02,1.05,2.11,1.18,3.23,0.41c1.82-1.24,3.62-2.61,5.05-4.42c1.78-2.25,3.65-4.38,5.42-6.62
	c1.94-2.46,3.91-4.88,5.94-7.24c1.47-1.7,3.25-2.97,4.52-4.94c0.28-0.43,0.73-0.79,1.26-0.8c1.11-1,1.45-1.1,2.43-0.23
	c1.86,1.67,3.76,3.28,5.46,5.21c3.4,3.85,6.35,8.17,9.29,12.52c2.81,4.15,5.75,8.2,8.32,12.57c3,5.09,6.03,10.14,9.11,15.16
	c1.33,2.16,2.75,4.21,4.23,6.21c2.73,3.7,5.77,7.09,8.13,11.17c0.66,1.15,1.35,2.31,1.83,3.57c1.54,4.08,4.16,6.84,7.32,8.93
	c2.21,1.46,4.4,2.95,6.34,4.91c1.19,1.21,2.57,2.08,3.88,3.07c0.51,0.38,1.19,0.58,1.33,1.47c-0.28,0.24-0.56,0.46-0.85,0.67
	c0.29-0.21,0.57-0.43,0.85-0.67c0.43,0.05,0.87,0.08,1.29,0.16c1.88,0.35,3.69,0.37,5.57-0.41c1.67-0.7,3.28-1.77,5.12-1.84
	c0.82,0.03,1.63,0,2.44,0.31c0.95,0.37,1.8,0.86,2.36,1.88c0.44,0.79,1.1,1.2,1.82,1.28c2.92,0.3,5.53,1.72,7.97,3.47
	c1.92,1.38,3.95,2.11,6.1,2.53c2.47,0.49,4.92,1.23,7.45,1.09c0.3-0.02,0.57,0.08,0.76,0.4c-0.77,0.8-1.54,1.61-2.3,2.42
	c0.76-0.81,1.53-1.62,2.3-2.42c0.77-0.6,1.5-1.28,2.32-1.79c3.96-2.45,7.31-5.89,10.56-9.48c1.95-2.15,4.16-3.8,6.57-5.06
	c0.66-0.34,1.38-0.53,2.08-0.77c0.41-0.14,0.77-0.06,0.94,0.5c0.64-1.66,1.51-1.84,2.37-0.3c2.04,3.65,5.08,5.84,7.95,8.29
	c1,0.85,2.18,1.26,3.44,1.16c0.53-0.04,1.07,0,1.6,0c0.1-0.12,0.19-0.27,0.31-0.37c1.59-1.27,3.04-2.7,3.97-4.77
	c0.11-0.25,0.3-0.46,0.48-0.65c0.97-1.05,1.53-2.39,1.92-3.85c0.18-0.67,0.33-1.34,0.65-1.94c-0.29-0.58-0.21-1.05,0.21-1.54
	c0.47-0.56,1-0.75,1.59-0.51c0.93,0.38,1.76,1.01,2.48,1.79c0.87,0.95,1.85,1.7,2.85,2.41c3.38,2.41,6.51,5.27,9.74,7.94
	c1.82,1.5,3.27,3.64,5.2,5.03c3.07,2.23,6.02,4.69,8.84,7.35c2.97,2.8,5.93,5.62,8.88,8.46c0.45,0.43,0.92,0.91,1.23,1.49
	c1.31,2.48,3.37,3.79,5.39,5.18c2.02,1.39,4.03,2.78,5.66,4.85c1.04,1.32,2.38,2.2,3.7,3.05c2.4,1.56,4.63,3.38,6.52,5.8
	c1.73,2.21,3.54,4.33,5.35,6.46c3.39,4.01,6.92,7.85,10.22,11.98c0.54,0.68,1.21,1.17,1.89,1.62c1.23,0.81,2.34,1.74,3.39,2.75
	c0.18,0.17,0.34,0.35,0.52,0.52c-0.01-0.42-0.03-0.83-0.05-1.25c0,0,0.12,0.01,0.12,0.01c0.07-0.01,0.15-0.01,0.22-0.01
	c0,0.52,0,1.04,0,1.55c2.8,2.89,5.19,6.29,8.12,9.46c4.96,4.29,10.06,8.37,15.36,12.6c1.5,1.2,2.92,2.45,4.31,3.74
	c1.76-1.6,3.52-3.19,5.26-4.81c6.01-5.57,12.15-10.71,18.55-15.02c11.89-8,23.73-16.21,35.45-24.78c11.21-8.2,22.1-17.5,31.69-30.04
	c3.46-4.52,6.66-9.51,9.16-15.52c1.43-3.45,2.77-6.98,4.43-10.23c1.32-2.58,2.93-4.51,4.45-6.61c3.39-4.69,7.19-8.49,11.37-11.3
	c3-2.02,6.11-1.54,9.2-1.5c1.89,0.02,3.47-0.92,5.06-2.43c4.97-4.7,8.96-11.24,13.15-17.36c3.94-5.75,7.11-12.49,8.92-20.65
	c0.6-2.69,1.74-4.48,3.52-5.54c2.51-1.5,5.15-1.66,7.71-1.73c4.4-0.13,8.61-1.39,12.77-3.4c3.14-1.52,6.35-2.61,9.6-3.02
	c3.77-0.48,7.39-2.06,11.11-2.9c0.63-0.14,1.27-0.58,1.83-1.08c3.28-2.9,6.55-5.84,9.81-8.81c5.74-5.21,11.2-11.17,17.13-15.85
	c4.78-3.78,9.12-8.63,13.44-13.55c4.57-5.22,8.87-11.02,13.58-15.97c5.12-5.38,10.57-9.22,16.65-10.85
	c4.24-1.14,8.4-1.42,12.58,0.89c2.55,1.41,5.11,2.77,7.62,4.34c5.09,3.2,10.4,5.59,15.04,10.45c1.57,1.65,3.09,3.47,4.77,4.81
	c3.72,2.97,6.8,7.18,9.71,11.8c1.1,1.74,2.18,3.48,3.46,4.96c3.58,4.14,7.3,7.96,11.05,11.68c2.93,2.91,6.16,4.92,9.59,5.71
	c2.84,0.65,5.59,1.66,8.28,3.05c0-49.59,0-99.18,0-148.78H0z"/>
</svg>
