<?xml version="1.0" encoding="UTF-8"?><svg id="Ebene_1" xmlns="http://www.w3.org/2000/svg" viewBox="0 0 597.69 561.83"><defs><style>.cls-1{fill:#fff;}.cls-2{fill:#9bb4df;}.cls-3{fill:#bcbfe1;}.cls-4{fill:#a9d3ea;}.cls-5{fill:#96aad8;}.cls-6{fill:#304f9e;}.cls-7{opacity:.4;}</style></defs><path class="cls-1" d="M594.7,366.84s-14.5,24.6-36.01,26.33-76.53,67.48-76.53,67.48c0,0-53.48,52.6-60.13,55s-11.61,.71-11.61,.71c0,0-52.05,44.43-64.93,45.42s-80.35-15.62-94.08-19.81-102-64.37-104.97-68.33S2.46,391.2,2.46,391.2L0,560.52l595.84-1.14-1.14-192.54Z"/><g class="cls-7"><path class="cls-4" d="M584.21,9.64c-6.15,2.85-12.45,4.65-19.32,4.5-9.63-.21-19.23,.58-28.81,1.47-1.75,.16-3.47,.54-5.06,1.18-5.83,2.34-11.87,4.17-17.47,7.08-3.73,1.93-7.7,3.08-11.81,3.71-4.16,.63-8.03,2.07-11.66,4.14-5.13,2.94-10.53,5.27-16.01,7.43-9.51,3.74-16.81,10.36-23.05,18.32-1.97,2.51-3,5.33-2.85,8.64,.25,5.39-.02,10.83,1.78,16.05,.72,2.08,.14,3.99-1.23,5.67-2.77,3.4-6.01,6.08-10.25,7.47-8.01,2.64-16.11,4.87-24.46,6.14-9.07,1.38-17.48,4.71-25.86,8.37-12.39,5.41-25.15,9.88-37.95,14.18-6.76,2.27-13.97,2.16-21.01,2.73-11.94,.96-23.55,3.08-34.23,9.02-3.97,2.21-8.21,3.91-12.6,5.17-6.39,1.84-10.16,6.42-11.73,12.69-1.73,6.92-3.94,13.72-4.66,20.92-.52,5.24-2.71,10.15-4.88,14.96-.78,1.74-1.83,3.29-3.03,4.76-2,2.45-4.4,3.68-7.67,3.54-5.7-.24-11.13-1.21-16.12-4.19-3.14-1.88-6.64-2.8-10.13-3.75-9.04-2.45-18.16-4.3-27.48-5.45-9.81-1.21-19.36-3.87-28.86-6.68-10-2.96-19.64-6.98-29.67-9.88-10.02-2.9-20.06-4.18-30.48-2.98-6.1,.7-12.26,.48-18.41-.27-3.16-.39-6.43-.37-9.61-.06-8.3,.81-16.57,.25-24.81-.58-4.38-.44-8.79-.27-13.17-1.09-3.95-.74-6.96-2.58-9.28-5.78-3.95-5.45-7.86-10.93-11.83-16.37-2.23-3.06-4.87-5.75-7.87-8.05-3.91-2.99-7.78-6.02-11.37-9.39V380.16c2.99,.05,5.88,.28,8.59,.76,.37-.18,.74-.37,1.12-.54,7.99-3.66,15.56-8.06,22.73-13.18,3.71-2.65,7.26-5.48,10.37-8.84,1.42-1.54,2.96-2.93,4.63-4.18,3.37-2.5,6.69-5.08,10.18-7.41,3.69-2.46,7.14-5.21,10.35-8.3,2.5-2.4,5.1-4.7,7.88-6.78,1.25-.94,2.41-2.05,3.25-3.43,.72-1.19,1.84-1.85,3.04-2.38,.77-.34,1.51-.24,2.1,.43,.38,.44,.84,.79,1.27,1.17,.8,.7,1.66,.78,2.55,.27,1.44-.83,2.86-1.73,3.99-2.93,1.4-1.49,2.88-2.9,4.28-4.39,1.53-1.63,3.09-3.24,4.69-4.8,1.16-1.13,2.57-1.97,3.57-3.28,.22-.28,.57-.52,.99-.53,.88-.66,1.14-.73,1.92-.15,1.47,1.11,2.97,2.18,4.31,3.45,2.68,2.55,5.01,5.42,7.34,8.3,2.22,2.76,4.54,5.44,6.57,8.34,2.37,3.37,4.76,6.73,7.2,10.05,1.05,1.43,2.18,2.79,3.34,4.12,2.16,2.46,4.55,4.7,6.42,7.41,.52,.76,1.06,1.53,1.44,2.37,1.22,2.7,3.29,4.54,5.78,5.92,1.75,.97,3.48,1.95,5.01,3.26,.94,.8,2.03,1.38,3.07,2.03,.4,.25,.94,.38,1.05,.97-.22,.16-.44,.31-.67,.45,.23-.14,.45-.29,.67-.45,.34,.03,.68,.05,1.02,.11,1.49,.24,2.92,.25,4.4-.27,1.32-.46,2.59-1.17,4.04-1.22,.65,.02,1.28,0,1.92,.21,.75,.24,1.42,.57,1.87,1.24,.35,.53,.87,.8,1.44,.85,2.31,.2,4.37,1.14,6.3,2.3,1.52,.92,3.12,1.4,4.82,1.68,1.95,.32,3.88,.82,5.89,.72,.24-.01,.45,.06,.6,.27-.61,.53-1.21,1.07-1.82,1.61,.6-.54,1.21-1.08,1.82-1.61,.61-.4,1.19-.85,1.83-1.18,3.13-1.62,5.77-3.91,8.34-6.29,1.54-1.43,3.28-2.52,5.19-3.36,.52-.23,1.09-.35,1.64-.51,.33-.09,.61-.04,.74,.33,.5-1.1,1.19-1.22,1.87-.2,1.61,2.42,4.01,3.88,6.28,5.5,.79,.57,1.72,.84,2.72,.77,.42-.03,.84,0,1.26,0,.08-.08,.15-.18,.24-.24,1.26-.84,2.4-1.79,3.13-3.17,.09-.17,.24-.3,.38-.43,.77-.69,1.21-1.59,1.52-2.56,.14-.44,.26-.89,.52-1.28-.23-.39-.17-.69,.16-1.02,.37-.37,.79-.5,1.25-.34,.73,.25,1.39,.67,1.96,1.19,.69,.63,1.46,1.13,2.25,1.6,2.67,1.6,5.14,3.5,7.7,5.27,1.44,1,2.59,2.41,4.1,3.34,2.43,1.48,4.75,3.11,6.99,4.88,2.35,1.86,4.68,3.73,7.01,5.61,.36,.29,.73,.61,.97,.99,1.04,1.65,2.66,2.52,4.26,3.44s3.18,1.84,4.47,3.22c.82,.87,1.88,1.46,2.92,2.03,1.9,1.03,3.66,2.24,5.15,3.84,1.37,1.47,2.8,2.87,4.22,4.29,2.68,2.66,5.47,5.21,8.08,7.94,.43,.45,.96,.78,1.49,1.07,.97,.54,1.85,1.16,2.68,1.82,.14,.11,.27,.23,.41,.35,0-.28-.03-.55-.04-.83h.28v1.03c2.21,1.92,4.1,4.17,6.41,6.28,3.92,2.85,7.94,5.55,12.13,8.36,1.18,.79,2.31,1.63,3.41,2.48,1.39-1.06,2.78-2.12,4.16-3.19,4.74-3.7,9.6-7.11,14.65-9.96,9.39-5.31,18.74-10.75,28-16.44,8.86-5.44,17.45-11.61,25.03-19.92,2.73-3,5.26-6.31,7.24-10.3,1.13-2.29,2.19-4.63,3.5-6.78,1.04-1.71,2.32-2.99,3.51-4.39,2.68-3.11,5.68-5.63,8.98-7.5,2.37-1.34,4.83-1.02,7.27-1,1.5,.02,2.74-.61,4-1.61,3.92-3.12,7.08-7.46,10.39-11.52,3.11-3.81,5.61-8.29,7.05-13.7,.47-1.79,1.38-2.97,2.78-3.67,1.98-.99,4.07-1.1,6.09-1.15,3.47-.09,6.8-.92,10.08-2.25,2.48-1.01,5.02-1.73,7.58-2.01,2.98-.32,5.84-1.37,8.78-1.93,.5-.1,1-.38,1.45-.72,2.59-1.92,5.17-3.88,7.74-5.84,4.53-3.46,8.85-7.41,13.53-10.52,3.77-2.5,7.21-5.73,10.61-8.99,3.61-3.46,7-7.31,10.72-10.59,4.04-3.57,8.35-6.11,13.15-7.2,3.35-.76,6.64-.94,9.94,.59,2.01,.93,4.04,1.83,6.02,2.88,4.02,2.12,8.22,3.71,11.88,6.93,1.24,1.09,2.44,2.3,3.77,3.19,2.94,1.97,5.37,4.77,7.67,7.82,.87,1.15,1.73,2.31,2.73,3.29,2.83,2.75,5.76,5.28,8.73,7.75,2.31,1.93,4.86,3.26,7.57,3.79,2.24,.43,4.42,1.1,6.54,2.02V1.09c-4.41,3.01-8.64,6.28-13.53,8.55h.05Z"/></g><g><path class="cls-1" d="M295.52,414.64c-1.35-2.42-2.49-5.03-2.71-7.8s.63-5.72,2.71-7.56c1.76-1.55,4.2-2.14,6.55-2.13,3.62,.03,7.09,1.36,10.45,2.72,4.58,1.86,9.2,3.86,12.99,7.04,5.31,4.46,16.98,30.58,3.79,30.3-13.55-.29-27.45-11.25-33.77-22.58h-.01Z"/><path class="cls-3" d="M273.92,377.02h-.27c.01,.26,.03,.53,.04,.8,.08,.06,.15,.13,.23,.2v-1Z"/><path class="cls-6" d="M92.39,284.75c1.13,.91,2.07,1.97,2.44,3.41,.18,.69,.31,1.39,.4,2.09,.25,2.09-.39,3.83-2.11,5.13-.51,.38-1.04,.74-1.54,1.13-.9,.71-1.57,1.6-2,2.67-.52,1.31-.41,2.57,.41,3.74,.68,.98,1.4,1.93,2.23,2.81,2.38,2.52,2.43,2.67,3.05,6.06,.1,.52,.16,1.05,.03,1.56-.37,1.49-.7,3.01-1.35,4.4-.95,2.04-1.68,4.15-2.3,6.32-.43,1.52-1.19,2.91-2.38,4.02-1.48,1.38-2.9,2.83-4.44,4.14-1.31,1.11-2.65,2.2-4.11,3.13-1.64,1.05-3.26,2.14-4.87,3.22-1.87,1.25-3.65,2.64-5.34,4.11-1.27,1.1-2.39,2.36-3.74,3.39-.77,.59-1.37,1.38-1.9,2.21-.17,.27-.25,.57-.03,.84s.54,.26,.82,.14c.58-.25,1.16-.52,1.73-.8,.74-.36,1.43-.84,2.24-1.03,1.68-.39,3.35-.81,5.06-1.01,3.05-.35,6.1-.66,9.15-1.01,4.21-.47,8.43-.81,12.66-.93,2.74-.07,5.45-.35,8.17-.63,2.2-.22,4.36-.69,6.52-1.16,2.02-.44,4.08-.55,6.14-.63,2.81-.1,5.59-.55,8.38-.82,3.88-.37,7.73-1.01,11.42-2.29,.97-.34,1.96-.64,2.91-1.01,.32-.12,.63-.26,.94-.4,.39-.18,.78-.37,1.15-.6,.22-.13,.44-.28,.65-.43-.11-.57-.63-.69-1.03-.94-1.01-.63-2.08-1.19-3-1.96-1.5-1.26-3.18-2.21-4.89-3.14-2.44-1.34-4.46-3.11-5.65-5.72-.37-.81-.9-1.55-1.41-2.29-1.82-2.62-4.16-4.78-6.27-7.16-1.14-1.29-2.24-2.6-3.27-3.98-2.38-3.21-4.72-6.45-7.03-9.71-1.99-2.8-4.25-5.39-6.42-8.05-2.27-2.78-4.54-5.55-7.16-8.02-1.31-1.23-2.77-2.27-4.21-3.33-.75-.56-1.01-.5-1.87,.14,.34,.99,.98,1.75,1.78,2.39h.04Z"/><path class="cls-6" d="M180.91,348.75c-4.74,5.36-9.32,10.86-14.15,16.15-4.14,4.54-8.39,8.98-12.74,13.32-3.95,3.93-6.86,8.47-8.62,13.77-.65,1.95-1.09,4-2.11,5.8-1.8,3.19-1.82,6.66-1.78,10.15,0,.07,0,.15,.02,.22,.06,.26,.14,.52,.44,.6,.34,.09,.58-.07,.75-.35,.34-.58,.68-1.16,.99-1.76,1.34-2.65,3.45-4.27,6.35-4.89,1.29-.28,2.5-.77,3.68-1.35,.91-.45,1.83-.86,2.74-1.3,3.32-1.57,6.24-3.7,8.84-6.29,.69-.69,1.31-1.45,1.79-2.3,1.97-3.43,3.2-7.08,3.37-11.07,.15-3.39,.89-6.66,2.18-9.81,.82-1.99,1.97-3.78,3.02-5.64,1.15-2.05,2.65-3.71,4.84-4.66,2.43-1.05,4.28-2.86,6.08-4.72,.75-.77,1.3-1.67,1.56-2.7,.36-1.41,.68-2.83,.67-4.31-.02-3.1,.85-5.88,2.82-8.34,1.07-1.33,2.36-1.59,3.89-1.27,.66,.14,1.31,.33,1.92,.61,1.91,.87,3.71,.59,5.45-.47,.27-.16,.66-.26,.59-.72-.41,0-.82-.02-1.23,0-.98,.06-1.88-.2-2.65-.74-2.22-1.57-4.56-2.97-6.13-5.31-.66-.99-1.33-.87-1.83,.19-.55,1.61-1.48,3.02-2.27,4.51-2.4,4.51-5.08,8.82-8.49,12.67h.01Z"/><path class="cls-6" d="M151.31,336c-1.85,1.69-3.36,3.64-4.39,5.92-.99,2.19-2.41,4.03-4.03,5.77-1.81,1.95-3.58,3.93-5.13,6.1-.81,1.13-1.73,2.17-2.85,3.01-.93,.7-1.76,1.51-2.59,2.32-1.09,1.08-2.25,2.09-3.71,2.67-.24,.09-.45,.26-.66,.42-.15,.12-.21,.32-.14,.51,.09,.23,.27,.37,.52,.35,.42-.03,.79-.22,1.16-.39,2.43-1.1,4.96-1.92,7.56-2.48,2.34-.51,4.67-1.05,6.97-1.71,.86-.25,1.74-.47,2.62-.62,3.95-.69,7.86-1.53,11.58-3.08,1.21-.51,2.52-.94,3.4-1.91,1.63-1.8,3.59-3.17,5.51-4.59,1.9-1.41,3.66-2.98,5.42-4.54,.59-.52,1.18-1.04,1.77-1.55-.14-.2-.35-.27-.59-.26-1.96,.09-3.84-.38-5.75-.7-1.66-.27-3.22-.74-4.71-1.62-1.88-1.12-3.9-2.03-6.15-2.22-.56-.05-1.07-.31-1.4-.82-.44-.65-1.09-.97-1.82-1.2-.63-.2-1.25-.18-1.88-.2-.12,.38-.47,.58-.73,.83h.02Z"/><path class="cls-1" d="M566.67,282.87c.46,1.1,.89,2.21,1.35,3.3,.46,1.1,.94,2.18,1.49,3.24,.11,.21,.24,.41,.35,.62v-2.07c-.24-.48-.47-.97-.73-1.44-.86-1.62-1.81-3.19-2.8-4.73-.11-.17-.23-.34-.35-.51,.23,.53,.46,1.06,.68,1.59h.01Z"/><path class="cls-1" d="M569.24,289.09c-.53-1.06-1.01-2.15-1.46-3.24-.46-1.1-.89-2.21-1.35-3.3-.25-.59-.5-1.18-.77-1.76-.81-1.21-1.65-2.4-2.54-3.55-1.12-1.46-2.28-2.88-3.51-4.26l-.69-.75c-.97-.55-1.92-1.2-2.82-1.94-2.89-2.38-5.76-4.83-8.52-7.48-.98-.94-1.82-2.06-2.67-3.18-2.25-2.95-4.62-5.65-7.49-7.55-1.29-.85-2.47-2.03-3.68-3.08-3.58-3.11-7.67-4.64-11.6-6.69-1.94-1.01-3.91-1.88-5.88-2.78-3.22-1.48-6.43-1.3-9.71-.57-4.69,1.04-8.89,3.5-12.84,6.95-3.63,3.17-6.94,6.89-10.47,10.23-3.33,3.15-6.68,6.26-10.36,8.68-4.57,3-8.79,6.81-13.21,10.15-2.51,1.9-5.03,3.78-7.56,5.64-.44,.32-.93,.6-1.41,.69-2.87,.54-5.66,1.55-8.57,1.86-2.51,.27-4.98,.96-7.4,1.94-3.21,1.29-6.46,2.09-9.85,2.18-1.97,.05-4.01,.15-5.94,1.11-1.37,.68-2.25,1.82-2.71,3.55-1.4,5.22-3.84,9.54-6.88,13.22-3.24,3.92-6.31,8.11-10.15,11.12-1.23,.97-2.44,1.57-3.9,1.56-2.38-.02-4.79-.33-7.1,.96-3.23,1.8-6.15,4.23-8.77,7.24-1.17,1.34-2.41,2.58-3.43,4.23-1.28,2.08-2.31,4.34-3.42,6.55-1.93,3.85-4.4,7.05-7.07,9.94-7.4,8.03-15.79,13.99-24.44,19.24-9.04,5.49-18.17,10.75-27.34,15.87-4.93,2.76-9.67,6.05-14.3,9.62-1.35,1.04-2.71,2.06-4.06,3.08,3.84,2.96,7.17,6.29,10.17,9.86,.78,.92,1.54,1.86,2.27,2.81,1.1,1.42,2.15,2.88,3.18,4.35,.45-.5,.93-.93,1.45-1.3h.01c.34-.25,.68-.47,1.04-.66,2.92-1.56,5.81-3.27,8.82-4.48,2.21-.89,4.58-1.06,6.88-1.57,6.03-1.33,12.08-2.52,17.93-4.96,1.08-.45,2.2-.74,3.32-.99,3.17-.7,6.02,.22,8.43,3.12,.33,.39,.66,.78,.97,1.19,.89,1.16,1.87,2.09,2.99,2.73,7.78-3.43,15.52-6.92,23.34-10.24,6.83-2.9,14.1-4.85,20.77-8.07,3.89-1.88,7.78-3.78,11.64-5.72,0-.74,.02-1.48,.04-2.23,.06-1.59,.63-2.66,1.75-3.23,.59-.3,1.18-.59,1.78-.87,2.45-1.13,4.75-2.62,6.91-4.56,3.4-3.05,7.19-5.2,10.89-7.5,2.59-1.61,5.05-3.38,7.16-5.96,3.43-4.19,7.53-6.99,11.78-9.36,6.38-3.57,11.7-8.76,15.66-16.31,1.88-3.59,4.35-6.45,6.93-9.13,5.2-5.4,10.54-10.56,15.65-16.12,2.6-2.82,5.54-4.92,8.69-6.5,2.18-1.09,4.35-2.25,6.52-3.37,1.89-.97,3.84-1.67,5.84-2.06,1.77-.34,3.53-.29,5.23,.57,1.47,.75,2.97,1.43,4.43,2.22,2.75,1.49,5.53,2.79,8.45,3.66,3.32,.98,6.32,2.88,8.42,6.69,1.42,2.57,3.48,3.8,5.77,4.43,1.92,.53,3.84,1.07,5.77,1.42,2.71,.49,5.32,1.42,7.93,2.44,2.15,.84,4.04,2.29,5.68,4.22v-28.81c-.22-.38-.43-.77-.63-1.16v-.03Zm-109.89,5.12c-.41,2.2-1.22,4.2-2.22,6.02-1.01,1.85-1.68,3.84-2.18,6.02s-.3,4.18,.63,5.95c1.18,2.25,1.49,4.67,1.49,7.32,0,2.79-1.04,4.55-2.77,5.74-.77,.53-1.65,.81-2.49,1.15-5.98,2.4-11.96,4.76-17.51,8.67-2.17,1.53-4.33,3.08-6.51,4.58-1.53,1.06-2.57,2.6-3.05,4.82-.36,1.68-.83,3.31-1.26,4.96-.92,3.52-2.71,5.93-5.37,7.21-6,2.88-12.06,5.36-18.47,6.16-3.01,.37-6,1.04-8.96,1.9-.62,.18-1.26,.33-1.78,.81-2.27,2.09-4.83,3.61-6.9,6.09-1.21,1.45-2.7,2.16-4.33,2.18-1.58,.02-2.41-1.69-1.53-3.37,1.57-3,2.92-6.2,4.8-8.93,1.81-2.62,3.96-4.33,6.55-5.14,1.04-.33,2.09-.66,3.13-.99,1.18-.37,2.34-.93,3.25-1.95,3.7-4.15,8.02-6.85,12.44-9.35,3.15-1.79,5.74-4.38,7.57-8.29,1.76-3.75,4.07-6.97,6.15-10.41,.51-.85,1.22-1.42,1.89-2.05,1.54-1.44,3.08-2.88,4.61-4.35,.67-.64,1.27-1.4,1.71-2.31,1.39-2.86,3.09-5.45,4.09-8.65,1.36-4.34,4-7.03,7.16-8.77,5.12-2.81,10.31-5.4,15.48-8.06,.76-.39,1.54-.77,2.14-.73,1.84,0,2.65,1.46,2.22,3.77h.02Z"/><path class="cls-5" d="M393.09,531.68c-.92,.57-1.83,1.14-2.75,1.71,3.93-1.92,7.65-4.3,11.1-7.29-2.65,2.01-5.53,3.83-8.35,5.58h0Z"/><path class="cls-5" d="M364.86,551.26c2.08-1.72,4.15-3.48,6.26-5.15,2.21-1.77,4.43-3.54,6.68-5.21-2.85,1.63-5.73,3.21-8.65,4.71-1.92,2.13-3.73,4.41-5.66,6.5,.35-.07,.71-.33,1.05-.58,.11-.08,.21-.18,.32-.27h0Z"/><path class="cls-5" d="M410.32,516.36c-.38,.71-.81,1.39-1.26,2.05,1.07-.78,2.28-1.18,3.59-1.13,.44,.02,.88-.06,1.32-.14,2.62-.48,5.22-1.18,7.87-1.45,.06,0,.12-.02,.18-.03,11.69-10.32,23.46-20.57,35.12-30.92,6.12-5.43,12.03-11.07,17.82-16.82-2.44-1.37-4.91-2.6-7.6-2.99-1.62-.24-2.81-1.23-3.9-2.74-2.04-2.84-4.12-5.64-6.14-8.51-1.25-1.77-2.57-3.4-3.45-5.58-.95-2.36-2.59-3.59-4.52-4.15-1.05-.31-1.98-.05-2.84,.85-1.94,2.03-3.16,4.7-3.13,7.91,.05,5.01-.41,9.95-.81,14.9-.36,4.47-.98,8.87-1.84,13.22-.36,1.83-1.16,3.03-2.43,3.88-2.95,1.98-6.1,3.13-9.31,4.11-4.13,1.26-8.37,1.54-12.52,2.61-2.96,.76-5.81,1.75-7.98,4.7-.36,.48-.7,.98-1.04,1.49,5.41,4.14,6.14,12.65,2.87,18.74h0Z"/><path class="cls-5" d="M555.38,395.06c1.1-.62,2.2-1.26,3.3-1.88-.54-.73-1.27-1.16-2.1-1.3-.81-.14-1.63-.41-2.44-.4-4.07,.02-8.01-1.32-12.03-1.86-3.71-.5-7.28-2.13-11.01-2.55-2.72-.31-5.4-.97-7.99-2.05-2.57-1.07-5.15-1.36-7.83-1.48-4.04-.18-7.33,2.07-10.55,4.77-1.07,.89-1.72,2.21-1.84,3.88-.11,1.56-.63,2.86-1.32,4.07-.57,.99-1.15,1.98-1.74,2.95-1.98,3.22-3.7,6.74-5.98,9.64-1.47,1.87-3.11,3.45-5.08,4.87,.06-1.32,.19-2.23,.14-3.12-.36-6.19,.48-12.26,.94-18.37,.17-2.3,.62-4.6,.05-6.92-.54-2.22-1.5-2.99-3.16-2.21-3.4,1.59-6.71,3.42-9.48,6.59-1.82,2.08-3.75,3.94-6.12,4.82-3.22,1.2-6.49,2.17-9.8,2.8-6.08,1.15-12.04,2.82-17.61,6.41-2.14,1.37-4.03,3.04-5.46,5.59-1.99,3.56-4.18,6.89-6.97,9.42-1.45,1.32-2.98,2.48-4.46,3.76-.85,.73-1.61,1.59-1.98,2.92-.44,1.61-.26,2.6,.89,3.32,1.05,.66,1.92,1.58,2.79,2.54,2.16,2.39,4.62,3.59,7.46,3.78,2.7,.18,5.43,.33,8.04,1.47,.91,.4,1.88,.38,2.82,.32,2.01-.13,3.87,.59,5.68,1.65,4.05,2.38,7.97,5.06,11.49,8.67,.64,.66,1.36,1.24,2.11,1.65,4.34,2.39,8.32,5.63,12.28,8.92,1.23,1.02,2.47,2,3.73,2.93,8.95-9.19,17.65-18.63,26.34-28.07,13.73-14.9,29.15-27.53,46.86-37.52h.03Z"/><path class="cls-5" d="M591.18,350.16c-.65-.9-1.33-1.77-2.12-2.49-1.32-1.2-2.27-2.76-3.02-4.69-1.54-3.99-3.04-8.04-5.75-11.05-3.43-3.82-6.62-7.98-9.82-12.14-.2-.26-.4-.5-.61-.74-1.64-1.93-3.54-3.38-5.68-4.22-2.61-1.02-5.23-1.95-7.93-2.44-1.94-.35-3.86-.89-5.77-1.42-2.29-.63-4.35-1.87-5.77-4.43-2.1-3.81-5.11-5.71-8.42-6.69-2.92-.87-5.7-2.17-8.45-3.66-1.46-.79-2.96-1.47-4.43-2.22-1.7-.87-3.46-.92-5.23-.57-2.01,.39-3.95,1.09-5.84,2.06-2.18,1.12-4.34,2.27-6.52,3.37-3.15,1.58-6.09,3.67-8.69,6.5-5.11,5.56-10.45,10.72-15.65,16.12-2.59,2.68-5.05,5.55-6.93,9.13-3.96,7.55-9.28,12.74-15.66,16.31-4.25,2.37-8.35,5.17-11.78,9.36-2.11,2.58-4.56,4.35-7.16,5.96-3.71,2.3-7.49,4.46-10.89,7.5-2.17,1.94-4.46,3.44-6.91,4.56-.6,.27-1.19,.57-1.78,.87-1.12,.57-1.69,1.64-1.75,3.23-.03,.74-.04,1.48-.04,2.23,0,1.34,.03,2.67,.17,4.01,0,1,.01,2,.01,2.99s-.05,2,0,2.99c.12,2.6,1.49,4.59,3.43,4.84,1.58,.21,3.13,.61,4.64,1.2,2.78,1.07,5.48,.82,8.16-.54,1.6-.81,3.09-1.91,4.5-3.16,2.02-1.78,4.26-2.41,6.64-2.46,.88-.02,1.77,0,2.65-.03,3.56-.13,7.04-.72,10.38-2.44,3.71-1.9,7.44-3.7,11.17-5.52,2.58-1.25,4.86-3.11,7.01-5.35,3.32-3.46,6.5-7.11,9.6-10.9,1.68-2.06,3.59-2.88,5.92-2.19,2.52,.76,5.08,1.33,7.64,1.88,4.52,.96,9.06,1.35,13.55-.07,3.81-1.21,7.66-2.14,11.45-3.4,4.66-1.54,9.28-3.48,13.12-7.47,5.45-5.66,11.61-9.66,17.73-13.8,1.13-.77,2.26-.9,3.48-.55,2.29,.66,4.51,1.64,6.74,2.56,7.48,3.08,14.75,6.99,22.29,9.83,.42,.16,.87,.23,1.3,.23,.6,0,1.11-.34,1.39-1.08,.32-.8,.03-1.45-.38-2.02h0Z"/><path class="cls-5" d="M423.47,349.44c.43-1.65,.9-3.29,1.26-4.96,.48-2.23,1.52-3.76,3.05-4.82,2.18-1.5,4.34-3.05,6.51-4.58,5.54-3.9,11.53-6.26,17.51-8.67,.84-.34,1.72-.62,2.49-1.15,1.73-1.19,2.78-2.95,2.77-5.74,0-2.65-.31-5.07-1.49-7.32-.93-1.77-1.13-3.77-.63-5.95,.5-2.17,1.16-4.17,2.18-6.02,1-1.82,1.81-3.82,2.22-6.02,.43-2.31-.38-3.77-2.22-3.77-.61-.04-1.38,.34-2.14,.73-5.17,2.66-10.36,5.25-15.48,8.06-3.16,1.73-5.8,4.43-7.16,8.77-1,3.2-2.71,5.78-4.09,8.65-.44,.91-1.05,1.67-1.71,2.31-1.53,1.46-3.07,2.91-4.61,4.35-.67,.62-1.38,1.2-1.89,2.05-2.08,3.44-4.39,6.66-6.15,10.41-1.83,3.91-4.42,6.51-7.57,8.29-4.41,2.5-8.73,5.21-12.44,9.35-.91,1.02-2.07,1.58-3.25,1.95-1.04,.33-2.09,.67-3.13,.99-2.59,.81-4.74,2.52-6.55,5.14-1.88,2.73-3.23,5.93-4.8,8.93-.88,1.67-.04,3.39,1.53,3.37,1.62-.02,3.12-.73,4.33-2.18,2.07-2.48,4.63-4,6.9-6.09,.52-.48,1.15-.63,1.78-.81,2.96-.85,5.96-1.53,8.96-1.9,6.42-.8,12.48-3.28,18.47-6.16,2.66-1.28,4.45-3.68,5.37-7.21h-.02Z"/><path class="cls-5" d="M359.82,401.9c-.31-.41-.65-.79-.97-1.19-2.42-2.9-5.26-3.82-8.43-3.12-1.12,.25-2.24,.54-3.32,.99-5.85,2.44-11.91,3.63-17.93,4.96-2.3,.51-4.67,.68-6.88,1.57-3.01,1.21-5.9,2.92-8.82,4.48-.36,.19-.7,.41-1.04,.66h-.01c-.51,.38-1,.81-1.45,1.31,1.12,1.61,2.21,3.24,3.27,4.89,1.38-.45,2.78-.46,4.18-.39,.09,0,.19,0,.28,.01h.07c1.03,.06,2.04,.35,2.84,1.21,1.48,1.58,2.96,3.17,4.02,5.32,.06,.12,.12,.24,.18,.37,1.79,3.94,4.5,5.68,7.26,5.52,3.25-.07,5.68-.82,8.08-1.93,7.61-3.52,14.43-9.08,21.39-14.25,1.09-.81,2.12-1.81,2.94-3.1,1.12-1.75,.75-3.38-.94-3.84-.62-.17-1.19-.42-1.74-.74-1.11-.64-2.09-1.56-2.99-2.73h.01Z"/><path class="cls-5" d="M418.66,401.75c-1.48-1.43-3.03-2.73-4.64-3.9-1.17-.85-2.43-1.54-3.76-1.61-2.01-.11-3.84-.93-5.61-2.08-1.03-.67-2.11-1.12-3.23-1-1.34-.06-2.56,.36-3.75,.95-2.49,1.24-4.86,2.78-7.14,4.58-2.66,2.09-5.44,3.83-8.39,5.15-2.03,.9-4.18,1.22-6.15,2.41-.69,.42-1.29,.68-1.23,1.84,.07,1.19,.52,2.02,1.4,2.42,.57,.26,1.12,0,1.68-.03,1.88-.08,3.72-1.12,5.63-.4,2.12,.8,4.26,1.59,6.35,2.5,3.91,1.7,7.17,4.93,10.37,8.18,3.1,3.15,6.41,5.63,10.19,6.98,2.01,.72,3.75-.04,5.29-1.72,.83-.9,1.55-1.97,2.07-3.22,1.13-2.72,2.54-5.15,4.26-7.26,1.31-1.6,2.32-3.52,3.17-5.56,.87-2.07,.57-3.29-1.11-4.11-1.99-.97-3.72-2.49-5.4-4.11h0Z"/><path class="cls-6" d="M316.85,420.61c-.86-1.39-1.73-2.78-2.62-4.15-1.06-1.65-2.15-3.28-3.27-4.89-1.03-1.47-2.08-2.93-3.18-4.35-.74-.95-1.5-1.89-2.27-2.81-3-3.57-6.33-6.9-10.17-9.86-1.07-.83-2.17-1.63-3.33-2.4-4.09-2.71-8.02-5.32-11.85-8.07-2.26-2.03-4.1-4.21-6.26-6.06-.08-.07-.15-.13-.23-.2-.13-.11-.26-.23-.4-.34-.81-.65-1.67-1.24-2.61-1.76-.52-.29-1.04-.6-1.46-1.04-2.55-2.64-5.27-5.1-7.89-7.67-1.39-1.36-2.79-2.72-4.12-4.14-1.46-1.54-3.17-2.71-5.03-3.71-1.02-.55-2.06-1.11-2.86-1.96-1.26-1.33-2.81-2.22-4.37-3.11-1.56-.89-3.15-1.73-4.16-3.32-.24-.37-.6-.68-.95-.95-2.27-1.81-4.55-3.62-6.85-5.42-2.18-1.7-4.45-3.28-6.82-4.71-1.48-.89-2.6-2.26-4.01-3.22-2.5-1.71-4.91-3.54-7.52-5.08-.77-.46-1.52-.94-2.2-1.54-.56-.5-1.2-.9-1.91-1.15-.46-.16-.86-.04-1.23,.32-.32,.32-.38,.61-.16,.99,1.41,1.76,3.23,3.11,4.76,4.76,.51,.55,.99,1.13,1.64,1.53,2.14,1.33,3.63,3.19,4.61,5.51,.81,1.93,1.67,3.86,2.88,5.58,1.3,1.84,2.45,3.77,3.66,5.66,.56,.87,.88,1.82,.89,2.86,0,1.27,.03,2.55-.04,3.82-.07,1.41-.49,2.7-1.39,3.84-1.47,1.85-2.72,3.84-3.81,5.95-2.13,4.13-3.56,8.41-3.09,13.14,.03,.34,.06,.67,.09,1.01,.12,1.23,.33,2.45,.28,3.69-.09,2.43-.98,4.36-3.38,5.33-.55,.22-1.09,.5-1.64,.74-2.07,.92-3.95,2.14-5.55,3.76-2.57,2.59-4.89,5.38-6.57,8.64-.48,.93-1.12,1.66-2,2.22-1.23,.79-2.46,1.59-3.61,2.48-1.24,.95-2.58,1.6-4.07,2.07-2.61,.83-5.05,2.01-6.65,4.34-2.11,3.07-4.95,5.42-7.7,7.83-2.22,1.94-4.4,3.96-6.84,5.65-.12,.08-.24,.19-.32,.31-.21,.32,0,.69,.38,.72,.24,.02,.44-.09,.63-.21,.78-.46,1.64-.72,2.5-.98,2.58-.78,5.16-1.56,7.7-2.46,.81-.29,1.65-.49,2.5-.63,2.48-.42,4.95-.92,7.39-1.51,.87-.21,1.73-.43,2.59-.67,1.51-.41,3-.85,4.5-1.28,16.07,.3,32.13,.6,48.2,.9,5.19,.1,10.42,.2,15.55,.92,1.79,.25,3.57,.57,5.33,1,1.82,.44,3.59,.98,5.33,1.61,.15,.05,.3,.11,.45,.16,6.98,2.58,13.39,6.53,19.58,10.9,.35,.25,.7,.49,1.05,.74,4.61,3.3,9.12,6.81,13.67,10.12,12.61,9.19,27.55,17.49,42.99,15.24-.07-.31-.17-.61-.27-.91-1.78-5.48-7.21-9.03-11.61-12.91-2.59-2.29-4.93-4.76-7.1-7.35-4.72-5.63-8.64-11.83-12.48-18.09-1.12-1.82-2.23-3.64-3.35-5.45l.05,.02Z"/><path class="cls-2" d="M407.44,497.63c-.57-.43-1.17-.83-1.83-1.16-2.21-1.09-4.73-1.47-7.09-2.26-9-3.04-14.39-11.57-21.83-17.25-7.43-5.67-16.8-8.41-25.3-12.54,.1,.3,.19,.6,.27,.91-15.44,2.25-30.38-6.05-42.99-15.24-4.55-3.31-9.06-6.82-13.67-10.12-.35-.25-.7-.5-1.05-.74-6.19-4.37-12.6-8.32-19.58-10.9-.15-.06-.3-.11-.45-.16-1.74-.63-3.51-1.17-5.33-1.61-1.76-.43-3.54-.75-5.33-1-5.13-.72-10.36-.82-15.55-.92-16.07-.3-32.13-.6-48.2-.9-1.5,.43-3,.87-4.5,1.28-.86,.24-1.72,.46-2.59,.67-2.44,.59-4.91,1.09-7.39,1.51-.85,.15-1.69,.34-2.5,.63-2.54,.9-5.12,1.68-7.7,2.46-.86,.26-1.72,.52-2.5,.98-.19,.11-.39,.22-.63,.21-.39-.03-.59-.4-.38-.72,.08-.12,.2-.23,.32-.31,2.44-1.69,4.62-3.7,6.84-5.65,2.75-2.41,5.59-4.76,7.7-7.83,1.6-2.33,4.05-3.52,6.65-4.34,1.49-.47,2.83-1.12,4.07-2.07,1.16-.89,2.38-1.69,3.61-2.48,.88-.56,1.52-1.29,2-2.22,1.69-3.26,4-6.05,6.57-8.64,1.61-1.62,3.48-2.83,5.55-3.76,.55-.24,1.08-.52,1.64-.74,2.41-.97,3.29-2.9,3.38-5.33,.05-1.24-.16-2.46-.28-3.69-.03-.34-.06-.67-.09-1.01-.47-4.73,.96-9.01,3.09-13.14,1.09-2.11,2.33-4.1,3.81-5.95,.91-1.14,1.32-2.43,1.39-3.84,.06-1.27,.05-2.55,.04-3.82,0-1.04-.34-1.99-.89-2.86-1.21-1.89-2.36-3.82-3.66-5.66-1.22-1.72-2.07-3.65-2.88-5.58-.98-2.32-2.47-4.18-4.61-5.51-.65-.4-1.13-.98-1.64-1.53-1.53-1.65-3.34-3-4.76-4.76-.25,.38-.37,.81-.5,1.24-.3,.94-.73,1.8-1.48,2.47-.14,.12-.28,.26-.37,.42-.71,1.33-1.83,2.25-3.06,3.06-.09,.06-.16,.16-.24,.23,.07,.45-.32,.55-.59,.72-1.74,1.05-3.54,1.34-5.45,.47-.62-.28-1.26-.47-1.92-.61-1.54-.32-2.83-.06-3.89,1.27-1.97,2.45-2.84,5.24-2.82,8.34,0,1.48-.32,2.9-.67,4.31-.26,1.02-.81,1.93-1.56,2.7-1.81,1.86-3.66,3.67-6.08,4.72-2.2,.95-3.69,2.61-4.84,4.66-1.05,1.86-2.2,3.65-3.02,5.64-1.29,3.15-2.03,6.42-2.18,9.81-.18,3.99-1.41,7.64-3.37,11.07-.49,.85-1.1,1.61-1.79,2.3-2.6,2.58-5.52,4.72-8.84,6.29-.91,.43-1.83,.85-2.74,1.3-1.18,.58-2.39,1.08-3.68,1.35-2.9,.62-5.02,2.24-6.35,4.89-.3,.6-.65,1.18-.99,1.76-.16,.28-.41,.44-.75,.35-.3-.08-.37-.34-.44-.6-.02-.07-.02-.15-.02-.22-.04-3.49-.02-6.96,1.78-10.15,1.02-1.8,1.46-3.85,2.11-5.8,1.76-5.31,4.68-9.84,8.62-13.77,4.35-4.34,8.6-8.78,12.74-13.32,4.83-5.29,9.4-10.79,14.15-16.15,3.4-3.84,6.09-8.15,8.49-12.67,.79-1.49,1.72-2.9,2.27-4.51-.13-.36-.4-.41-.72-.32-.54,.15-1.09,.27-1.6,.49-1.86,.81-3.56,1.86-5.07,3.24-2.51,2.3-5.09,4.5-8.14,6.07-.63,.32-1.19,.76-1.79,1.14-.6,.51-1.18,1.03-1.77,1.55-1.76,1.56-3.52,3.13-5.42,4.54-1.92,1.42-3.89,2.79-5.51,4.59-.88,.97-2.19,1.4-3.4,1.91-3.72,1.56-7.63,2.39-11.58,3.08-.88,.15-1.76,.37-2.62,.62-2.3,.66-4.63,1.2-6.97,1.71-2.59,.57-5.13,1.39-7.56,2.48-.38,.17-.74,.36-1.16,.39-.25,.02-.44-.12-.52-.35-.07-.19-.01-.39,.14-.51,.2-.16,.42-.32,.66-.42,1.46-.58,2.62-1.59,3.71-2.67,.83-.82,1.65-1.63,2.59-2.32,1.12-.84,2.04-1.88,2.85-3.01,1.55-2.17,3.32-4.15,5.13-6.1,1.62-1.74,3.04-3.59,4.03-5.77,1.03-2.28,2.54-4.23,4.39-5.92,.27-.25,.61-.44,.73-.83-1.42,.04-2.66,.73-3.95,1.18-1.44,.5-2.84,.49-4.29,.26-.33-.05-.67-.07-1-.1-.21,.15-.43,.3-.65,.43-.37,.22-.76,.42-1.15,.6-.31,.14-.62,.28-.94,.4-.96,.37-1.95,.67-2.91,1.01-3.7,1.29-7.54,1.92-11.42,2.29-2.79,.27-5.57,.72-8.38,.82-2.06,.08-4.12,.19-6.14,.63-2.16,.47-4.32,.95-6.52,1.16-2.72,.27-5.43,.55-8.17,.63-4.23,.12-8.45,.46-12.66,.93-3.05,.34-6.1,.65-9.15,1.01-1.71,.2-3.39,.62-5.06,1.01-.81,.19-1.5,.67-2.24,1.03-.57,.28-1.15,.55-1.73,.8-.29,.12-.61,.14-.82-.14-.21-.27-.14-.58,.03-.84,.52-.83,1.13-1.62,1.9-2.21,1.35-1.03,2.47-2.29,3.74-3.39,1.69-1.47,3.47-2.86,5.34-4.11,1.62-1.08,3.24-2.17,4.87-3.22,1.45-.93,2.8-2.02,4.11-3.13,1.54-1.31,2.96-2.75,4.44-4.14,1.18-1.11,1.95-2.5,2.38-4.02,.62-2.17,1.34-4.28,2.3-6.32,.65-1.39,.97-2.91,1.35-4.4,.13-.51,.07-1.04-.03-1.56-.63-3.39-.67-3.54-3.05-6.06-.83-.88-1.55-1.83-2.23-2.81-.81-1.17-.93-2.43-.41-3.74,.42-1.07,1.1-1.96,2-2.67,.5-.39,1.03-.75,1.54-1.13,1.71-1.29,2.36-3.03,2.11-5.13-.09-.7-.22-1.41-.4-2.09-.37-1.45-1.31-2.5-2.44-3.41-.8-.65-1.45-1.4-1.78-2.39-.41,0-.76,.24-.97,.51-.98,1.26-2.35,2.07-3.49,3.16-1.57,1.51-3.09,3.06-4.58,4.63-1.37,1.44-2.81,2.8-4.18,4.24-1.11,1.16-2.49,2.04-3.9,2.83-.87,.49-1.71,.41-2.49-.26-.43-.37-.87-.71-1.24-1.13-.58-.65-1.3-.73-2.05-.41-1.18,.51-2.27,1.15-2.97,2.3-.81,1.33-1.94,2.41-3.17,3.31-2.72,2.01-5.26,4.23-7.7,6.55-3.14,2.98-6.51,5.64-10.11,8.02-3.41,2.25-6.65,4.74-9.94,7.16-1.64,1.2-3.13,2.55-4.52,4.03-3.04,3.24-6.5,5.97-10.12,8.53-5.36,3.79-10.96,7.16-16.79,10.13v45.22c2.83,.8,5.65,1.68,8.44,2.62,6.12,3.28,12.1,6.86,17.96,10.65,12.34,7.98,24.82,15.64,37.91,22.34,23.31,11.95,45.25,26.28,67.74,39.65,16.18,9.62,32.5,19.04,47.71,30.2,5.92,4.35,11.75,8.82,17.65,13.21,4.99,3.71,10.02,7.35,15.21,10.79,4.86,3.22,9.82,6.2,14.92,8.85,1.75,1.61,3.64,3.13,5.78,4.48,4.35,2.74,17.9,9.44,29.35,12.18,2.94,.98,5.89,1.92,8.86,2.8,.36,.11,.71,.21,1.07,.31,20.23,5.95,40.98,9.65,61.84,10.99,7.5,.48,15.48,.53,21.91-3.89,.07-.05,.13-.11,.21-.16,1.66-1.17,3.14-2.59,4.56-4.11,1.93-2.09,3.74-4.37,5.66-6.5,2.92-1.49,5.8-3.08,8.65-4.71,4.24-2.43,8.41-4.96,12.54-7.51,.92-.57,1.84-1.14,2.75-1.71,2.82-1.76,5.7-3.57,8.35-5.58,2.94-2.24,5.61-4.73,7.62-7.68,.45-.66,.88-1.34,1.26-2.05,3.27-6.09,2.54-14.6-2.87-18.74h-.1Z"/></g><path class="cls-1" d="M1.14,0V121.03c.34,.3,.67,.61,.99,.93,3.94,3.88,8.28,7.24,12.65,10.59,3,2.3,5.64,4.98,7.87,8.05,3.97,5.44,7.88,10.92,11.83,16.37,2.31,3.19,5.33,5.04,9.28,5.78,4.38,.82,8.79,.66,13.17,1.09,8.23,.82,16.5,1.39,24.81,.58,3.18-.31,6.44-.32,9.61,.06,6.14,.75,12.31,.97,18.41,.27,10.41-1.2,20.45,.08,30.48,2.98,10.03,2.9,19.67,6.92,29.67,9.88,9.49,2.81,19.05,5.47,28.86,6.68,9.32,1.15,18.44,3,27.48,5.45,3.49,.95,6.99,1.87,10.13,3.75,4.98,2.98,10.42,3.95,16.12,4.19,3.27,.14,5.67-1.09,7.67-3.54,1.2-1.47,2.24-3.02,3.03-4.76,2.17-4.81,4.36-9.71,4.88-14.96,.72-7.2,2.92-14,4.66-20.92,1.57-6.27,5.34-10.85,11.73-12.69,4.39-1.27,8.63-2.97,12.6-5.17,10.69-5.94,22.29-8.06,34.23-9.02,7.05-.57,14.25-.45,21.01-2.73,12.8-4.3,25.56-8.77,37.95-14.18,8.38-3.66,16.79-6.99,25.86-8.37,8.34-1.27,16.44-3.5,24.46-6.14,4.24-1.4,7.48-4.07,10.25-7.47,1.38-1.69,1.95-3.59,1.23-5.67-1.8-5.23-1.53-10.66-1.78-16.05-.15-3.31,.88-6.12,2.85-8.64,6.24-7.96,13.54-14.58,23.05-18.32,5.48-2.16,10.88-4.49,16.01-7.43,3.63-2.07,7.5-3.51,11.66-4.14,4.11-.63,8.08-1.78,11.81-3.71,5.6-2.91,11.64-4.74,17.47-7.08,1.59-.64,3.3-1.01,5.06-1.18,9.59-.89,19.19-1.68,28.81-1.47,6.87,.15,13.17-1.65,19.32-4.5,1.32-.61,2.59-1.3,3.82-2.03V0H1.14Z"/></svg>