<svg xmlns="http://www.w3.org/2000/svg" id="Ebene_1" viewBox="0 0 595.28 418.53"><defs fill="#ffffff"><style>.cls-1{fill:#ffffff;}</style></defs><path class="cls-1" d="M588.01,73.75c-10.57-7.48-20.39-15.82-30.55-23.76-1.52-1.19-3.05-2.34-4.6-3.5-1.42-.65-2.84-1.31-4.25-1.98-7.28,.66-14.42,.84-20.75-.09-.43,.2-.86,.41-1.3,.61-9.26,4.11-18.02,9.01-26.29,14.67-4.28,2.93-8.37,6.06-11.94,9.74-1.63,1.68-3.4,3.22-5.33,4.59-3.89,2.76-7.72,5.61-11.75,8.2-4.26,2.73-8.24,5.76-11.94,9.16-2.87,2.64-5.87,5.17-9.08,7.47-1.45,1.04-2.78,2.26-3.73,3.77-.82,1.3-2.11,2.03-3.51,2.63-.89,.38-1.75,.29-2.46-.41-.46-.46-.99-.84-1.51-1.24-.95-.74-1.96-.81-2.99-.24-1.66,.92-3.31,1.92-4.61,3.24-1.61,1.63-3.31,3.19-4.92,4.82-1.76,1.79-3.55,3.55-5.39,5.27-1.33,1.24-2.96,2.18-4.11,3.6-.25,.31-.66,.57-1.15,.59-1.01,.73-1.32,.81-2.23,.2-1.74-1.16-3.51-2.29-5.1-3.63-3.18-2.7-5.96-5.74-8.73-8.79-2.65-2.92-5.4-5.77-7.84-8.85-2.83-3.59-5.69-7.15-8.6-10.68-1.25-1.52-2.59-2.96-3.99-4.37-2.57-2.6-5.41-4.97-7.64-7.85-.63-.81-1.27-1.63-1.73-2.52-1.47-2.89-3.92-4.82-6.87-6.26-2.06-1.01-4.1-2.03-5.91-3.41-1.12-.84-2.4-1.45-3.62-2.13-.48-.27-1.11-.39-1.25-1.03,.25-.18,.51-.34,.77-.49-.26,.15-.52,.32-.77,.49-.4-.03-.8-.04-1.2-.09-1.74-.22-3.41-.21-5.13,.38-1.54,.53-3.01,1.32-4.7,1.4-.75-.01-1.5,.03-2.25-.18-.88-.25-1.67-.58-2.2-1.3-.42-.56-1.03-.84-1.7-.88-2.7-.17-5.12-1.14-7.4-2.35-1.79-.96-3.67-1.44-5.66-1.71-2.29-.31-4.55-.8-6.89-.66-.28,.02-.53-.05-.71-.28,.7-.58,1.4-1.18,2.09-1.77-.69,.59-1.39,1.19-2.09,1.77-.7,.44-1.37,.94-2.11,1.31-3.63,1.81-6.67,4.33-9.62,6.94-1.77,1.57-3.79,2.79-6,3.72-.6,.26-1.27,.4-1.91,.58-.38,.11-.71,.06-.87-.35-.57,1.2-1.37,1.34-2.18,.25-1.92-2.57-4.76-4.09-7.44-5.79-.93-.59-2.02-.86-3.19-.77-.49,.04-.98,.02-1.48,.03-.09,.09-.17,.2-.28,.27-1.45,.93-2.77,1.98-3.6,3.48-.1,.18-.27,.33-.43,.47-.89,.76-1.38,1.74-1.72,2.79-.16,.48-.29,.97-.58,1.39,.28,.41,.21,.75-.17,1.1-.43,.41-.91,.55-1.46,.39-.86-.26-1.63-.69-2.31-1.24-.82-.66-1.73-1.18-2.66-1.68-3.15-1.66-6.07-3.66-9.09-5.52-1.7-1.04-3.07-2.55-4.86-3.51-2.86-1.54-5.61-3.26-8.25-5.11-2.78-1.95-5.54-3.92-8.3-5.9-.42-.3-.86-.64-1.15-1.04-1.24-1.75-3.15-2.66-5.04-3.62-1.88-.96-3.75-1.92-5.29-3.38-.97-.92-2.22-1.53-3.45-2.12-2.24-1.08-4.31-2.34-6.09-4.04-1.63-1.55-3.32-3.04-5.01-4.53-3.18-2.81-6.48-5.5-9.58-8.39-.51-.48-1.13-.82-1.76-1.13-1.14-.56-2.18-1.21-3.16-1.91-.16-.12-.32-.24-.48-.37,.01,.3,.04,.6,.06,.89h-.12c-.07,0-.14,0-.21,0l-.02-1.11c-2.62-2.02-4.87-4.41-7.61-6.63-4.63-2.99-9.38-5.82-14.33-8.76-1.4-.83-2.73-1.7-4.03-2.6-1.6,1.17-3.2,2.34-4.8,3.52-5.47,4.08-11.08,7.86-16.92,11.04-10.87,5.91-21.68,11.97-32.39,18.29-10.24,6.04-20.17,12.87-28.86,21.98-3.13,3.29-6.03,6.9-8.26,11.24-1.28,2.49-2.47,5.03-3.96,7.38-1.18,1.87-2.65,3.27-4.02,4.8-3.07,3.41-6.52,6.19-10.35,8.26-2.74,1.49-5.62,1.2-8.47,1.22-1.75,.01-3.19,.72-4.64,1.82-4.52,3.44-8.12,8.18-11.92,12.62-3.56,4.17-6.4,9.04-7.97,14.9-.52,1.93-1.55,3.23-3.17,4.01-2.3,1.11-4.73,1.27-7.09,1.36-4.06,.16-7.93,1.13-11.74,2.64-1.38,.55-2.78,1.02-4.2,1.4V418.53c7.36-4.24,13.44-9.98,18.79-16.51,2.25-2.75,3.4-5.8,3.16-9.36-.39-5.81-.18-11.66-2.38-17.26-.88-2.23-.24-4.29,1.33-6.14,3.18-3.72,6.91-6.67,11.83-8.26,9.31-3.01,18.73-5.58,28.45-7.12,10.57-1.67,20.33-5.44,30.05-9.55,14.37-6.08,29.19-11.16,44.05-16.06,7.85-2.59,16.27-2.61,24.49-3.37,13.93-1.28,27.44-3.81,39.81-10.43,4.59-2.46,9.51-4.38,14.62-5.84,7.42-2.11,11.74-7.13,13.46-13.92,1.89-7.49,4.34-14.86,5.04-22.64,.51-5.66,2.97-10.99,5.42-16.22,.88-1.89,2.07-3.58,3.45-5.19,2.29-2.68,5.07-4.05,8.89-3.97,6.66,.14,13.03,1.07,18.9,4.19,3.7,1.96,7.81,2.88,11.9,3.83,10.6,2.45,21.29,4.26,32.2,5.31,11.48,1.1,22.69,3.77,33.83,6.6,11.74,2.98,23.08,7.11,34.85,10.03,11.76,2.92,23.51,4.09,35.65,2.58,7.11-.88,14.31-.77,21.51-.09,3.7,.35,7.52,.27,11.22-.13,9.68-1.04,19.35-.61,28.98,.11,5.13,.38,10.28,.11,15.4,.91,4.62,.72,8.18,2.64,10.94,6.03,4.72,5.79,9.39,11.62,14.13,17.4,2.67,3.26,5.79,6.09,9.34,8.51,5.17,3.51,10.31,7.05,14.98,11.15,3.94,3.46,8.58,6.1,14.03,6.46,10.51,.68,18.37,5.93,25.81,12.08,3.91,3.23,7.68,6.59,11.12,10.24V78.64c-2.46-1.56-4.88-3.2-7.27-4.89Z" fill="#ffffff"/></svg>