<?xml version="1.0" encoding="UTF-8"?><svg id="Ebene_1" xmlns="http://www.w3.org/2000/svg" viewBox="0 0 630.19 145.51"><defs><style>.cls-1{fill:#1d1d1b;}.cls-2{fill:#55bfe4;}</style></defs><g><path class="cls-1" d="M134.38,97.33c1.34-.97,3.18-1.46,5.52-1.46,1.89,0,3.92,.38,6.08,1.15s4.29,1.75,6.38,2.93l4.1-8.54c-2.19-1.49-4.66-2.77-7.42-3.85-2.76-1.08-6.35-1.62-10.78-1.62-3.38,.15-6.36,.94-8.95,2.35-2.59,1.41-4.59,3.32-6,5.73-1.42,2.41-2.13,5.26-2.13,8.54,0,2.72,.48,5.02,1.45,6.89,.97,1.87,2.24,3.44,3.8,4.7,1.57,1.26,3.24,2.32,5.03,3.2,1.79,.87,3.53,1.64,5.22,2.31,1.44,.57,2.77,1.23,3.99,2,1.22,.77,2.19,1.62,2.91,2.54,.72,.92,1.08,1.95,1.08,3.08,0,1.64-.44,2.92-1.31,3.85-.87,.92-1.96,1.58-3.28,1.96-1.32,.38-2.62,.58-3.92,.58s-2.71-.2-4.25-.62c-1.54-.41-3.07-.99-4.59-1.73-1.52-.74-2.92-1.6-4.21-2.58l-4.77,8.7c1.94,1.38,3.95,2.53,6.04,3.42,2.09,.9,4.21,1.57,6.38,2,2.16,.43,4.29,.65,6.38,.65,4.08,0,7.51-.76,10.29-2.27,2.78-1.51,4.9-3.5,6.34-5.97,1.44-2.46,2.16-5.13,2.16-8,0-2.72-.37-5.02-1.12-6.89-.75-1.87-1.74-3.44-2.98-4.7-1.24-1.26-2.65-2.31-4.21-3.16s-3.15-1.58-4.74-2.19c-1.74-.67-3.42-1.41-5.03-2.23-1.62-.82-2.93-1.76-3.95-2.81-1.02-1.05-1.53-2.24-1.53-3.58,0-1.95,.67-3.41,2.01-4.39Z"/><polygon class="cls-1" points="205.29 120.38 166.97 84.01 166.52 84.01 166.52 142.9 177.49 142.9 177.27 109.41 215.67 145.21 215.97 145.21 215.97 86.24 205.08 86.24 205.29 120.38"/><path class="cls-1" d="M274.55,94.29c-2.61-2.69-5.61-4.81-8.99-6.35-3.38-1.54-6.99-2.31-10.81-2.31s-7.51,.77-10.89,2.31c-3.38,1.54-6.35,3.66-8.91,6.35s-4.56,5.79-6,9.28c-1.44,3.49-2.16,7.19-2.16,11.08s.72,7.75,2.16,11.24c1.44,3.49,3.44,6.56,6,9.2,2.56,2.64,5.53,4.71,8.91,6.2,3.38,1.49,7.01,2.23,10.89,2.23s7.43-.74,10.81-2.23c3.38-1.49,6.38-3.55,8.99-6.2,2.61-2.64,4.65-5.71,6.12-9.2,1.47-3.49,2.2-7.24,2.2-11.24s-.73-7.59-2.2-11.08c-1.47-3.49-3.5-6.58-6.12-9.28Zm-4.14,27.4c-.85,2.18-2.01,4.11-3.5,5.77-1.49,1.67-3.24,2.96-5.26,3.89-2.01,.92-4.19,1.39-6.53,1.39s-4.69-.46-6.75-1.39c-2.06-.92-3.88-2.22-5.44-3.89-1.57-1.67-2.78-3.59-3.65-5.77-.87-2.18-1.3-4.53-1.3-7.04s.42-4.95,1.27-7.16c.84-2.21,2.04-4.14,3.58-5.81,1.54-1.67,3.33-2.96,5.37-3.89,2.04-.92,4.25-1.38,6.64-1.38s4.6,.46,6.64,1.38c2.04,.92,3.81,2.22,5.33,3.89,1.52,1.67,2.71,3.61,3.58,5.81,.87,2.21,1.3,4.59,1.3,7.16s-.42,4.86-1.27,7.04Z"/><polygon class="cls-1" points="335.1 118.08 322.76 86.63 312.02 86.63 316.36 97.81 307.96 119.39 297.18 86.63 284.5 86.63 306.57 145.51 321.8 111.79 334.84 145.36 356.02 86.63 344.38 86.63 335.1 118.08"/><path class="cls-1" d="M405.35,95.56c-2.36-2.82-5.48-5.08-9.36-6.77s-8.58-2.54-14.09-2.54h-16.41v56.65h19.09c3.73,0,7.26-.63,10.59-1.89,3.33-1.26,6.26-3.08,8.8-5.47,2.54-2.39,4.54-5.26,6-8.62,1.47-3.36,2.2-7.15,2.2-11.35,0-3.54-.55-7.06-1.64-10.55-1.09-3.49-2.82-6.65-5.18-9.47Zm-5.67,26.75c-.87,2.18-2.11,3.99-3.73,5.43-1.62,1.44-3.54,2.53-5.78,3.27-2.24,.74-4.72,1.12-7.46,1.12h-6.41v-35.18h8.8c1.24,0,2.76,.24,4.55,.73,1.79,.49,3.54,1.37,5.26,2.66,1.71,1.28,3.16,3.09,4.33,5.43,1.17,2.33,1.75,5.35,1.75,9.04,0,2.82-.44,5.33-1.3,7.51Z"/><path class="cls-1" d="M437.83,84.01l-24.76,58.89h10.67l4.47-11.08h18.22l4.23,11.08h12.53l-24.76-58.89h-.6Zm-5.84,38.41l5.57-13.81,5.27,13.81h-10.84Z"/><polygon class="cls-1" points="483.69 112.39 471.09 86.24 457.74 86.24 477.95 125.27 477.95 142.9 488.76 142.9 488.76 125.27 509.34 86.24 496 86.24 483.69 112.39"/><path class="cls-1" d="M543.72,115.69c-1.24-1.26-2.65-2.31-4.21-3.16s-3.15-1.58-4.74-2.19c-1.74-.67-3.42-1.41-5.03-2.23-1.62-.82-2.93-1.76-3.95-2.81-1.02-1.05-1.53-2.24-1.53-3.58,0-1.95,.67-3.41,2.01-4.39,1.34-.97,3.18-1.46,5.52-1.46,1.89,0,3.92,.38,6.08,1.15,2.16,.77,4.29,1.75,6.38,2.93l4.1-8.54c-2.19-1.49-4.66-2.77-7.42-3.85-2.76-1.08-6.35-1.62-10.78-1.62-3.38,.15-6.36,.94-8.95,2.35-2.58,1.41-4.59,3.32-6,5.73-1.42,2.41-2.12,5.26-2.12,8.54,0,2.72,.48,5.02,1.45,6.89,.97,1.87,2.24,3.44,3.8,4.7,1.57,1.26,3.24,2.32,5.03,3.2,1.79,.87,3.53,1.64,5.22,2.31,1.44,.57,2.77,1.23,3.99,2,1.22,.77,2.19,1.62,2.91,2.54s1.08,1.95,1.08,3.08c0,1.64-.44,2.92-1.3,3.85-.87,.92-1.96,1.58-3.28,1.96-1.32,.38-2.62,.58-3.92,.58s-2.71-.2-4.25-.62c-1.54-.41-3.07-.99-4.59-1.73-1.52-.74-2.92-1.6-4.21-2.58l-4.77,8.7c1.94,1.38,3.95,2.53,6.04,3.42,2.09,.9,4.21,1.57,6.38,2,2.16,.43,4.29,.65,6.38,.65,4.08,0,7.51-.76,10.29-2.27,2.78-1.51,4.9-3.5,6.34-5.97,1.44-2.46,2.16-5.13,2.16-8,0-2.72-.37-5.02-1.12-6.89-.75-1.87-1.74-3.44-2.98-4.7Z"/></g><g><path class="cls-2" d="M57.1,41.39c-3.43-.72-12.52-2.03-20.28,1.98-.17,.08-.28,.25-.29,.44-.01,.19,.07,.38,.21,.49l4.75,3.59c.13,.09,.29,.13,.44,.09,8.05-1.97,15.04-1.45,20.21,1.5,2.48,4.21,5.11,9.6,8,16.45,.09,.22,.31,.35,.54,.33,.05,0,.1-.02,.15-.04,.3-.13,.61-.22,.93-.28,.29-.05,.48-.34,.43-.64v-.02c-1.64-7.7-4.21-15.16-7.65-22.2,.49-3.08,1.36-6.08,2.58-8.94,2.35-5.52,6.13-10.75,10.93-15.11,.1-.09,.17-.22,.18-.36l.6-6.32c.03-.3-.18-.57-.47-.6-.13-.02-.26,.02-.37,.1-5.03,3.6-9.21,7.86-12.41,12.67-2.26,3.37-4.01,7.06-5.19,10.97-2.47-3.89-11.31-16.8-26.83-28.92-.19-.14-.44-.15-.63,0l-5.38,3.91c-.15,.11-.23,.28-.23,.47,0,.18,.11,.35,.26,.45,14.34,9.38,26.35,25.52,29.51,29.98Z"/><path class="cls-2" d="M75.62,24.86c-.05,.07-.07,.15-.08,.24l-.62,6.03c-.01,.16,.04,.31,.14,.43,5.69,6.22,8.76,12.73,8.87,18.82-2.3,4.34-5.5,9.36-9.77,15.35-.17,.24-.13,.58,.1,.76,.26,.2,.5,.43,.71,.69,.1,.11,.23,.17,.37,.18,.03,0,.06,0,.08,0,.11-.01,.22-.06,.3-.14,5.63-5.3,10.6-11.31,14.79-17.89,2.83-1.1,5.78-1.82,8.79-2.15,5.81-.64,12.08,.13,18.16,2.25,.13,.04,.27,.04,.39-.02l5.6-2.61c.27-.13,.38-.45,.26-.73-.05-.12-.14-.21-.25-.27-5.55-2.71-11.22-4.32-16.86-4.78-3.96-.34-7.94-.05-11.82,.84,2.03-4.16,8.43-18.55,10.79-38.4,.03-.24-.09-.46-.3-.57L99.28,.05c-.27-.13-.58,0-.7,.27-.03,.06-.04,.12-.05,.19-.66,17.51-8.18,36.29-10.33,41.33-1.13-3.42-4.59-12.2-11.85-17.14-.25-.17-.57-.1-.74,.16Z"/><path class="cls-2" d="M144.25,58.96c-.02-.18-.12-.34-.27-.42-.16-.09-.34-.09-.5,0-15.01,8.13-34.54,10.76-39.85,11.35,2.31-2.71,7.94-10.18,8.44-19.13,.02-.3-.21-.56-.5-.58-.09,0-.17,.01-.25,.05l-5.38,2.46c-.14,.07-.25,.19-.29,.34-2.35,8.19-6.27,14.17-11.33,17.31-4.81,.1-10.63-.26-17.78-1.1-.29-.03-.55,.18-.58,.47-.04,.33-.11,.66-.22,.97-.05,.14-.04,.3,.02,.43,.06,.13,.18,.23,.31,.28,7.28,2.39,14.82,3.84,22.44,4.3,2.34,1.98,4.42,4.26,6.21,6.79,3.45,4.87,5.96,10.86,7.23,17.35,.03,.13,.1,.25,.21,.33l5,3.72c.1,.08,.23,.11,.36,.1,.07,0,.14-.03,.21-.07,.18-.11,.28-.31,.26-.52-.51-6.3-2-12.17-4.45-17.47-1.7-3.71-3.93-7.13-6.62-10.15,4.49-.25,19.67-1.66,37.63-9.48,.21-.09,.34-.32,.32-.55l-.6-6.78Z"/><path class="cls-2" d="M69.02,114.49c.17-.08,.28-.25,.3-.44l.62-6.03c.01-.16-.04-.31-.14-.43-5.69-6.22-8.76-12.73-8.87-18.82,2.3-4.35,5.5-9.37,9.77-15.36,.17-.24,.12-.58-.11-.76-.25-.2-.49-.44-.7-.69-.09-.11-.23-.18-.37-.18-.14,0-.28,.04-.39,.14-5.64,5.3-10.6,11.31-14.78,17.89-2.83,1.1-5.78,1.82-8.79,2.14-5.79,.65-12.07-.13-18.16-2.24-.13-.04-.27-.04-.39,.02l-5.61,2.61c-.27,.12-.38,.45-.26,.72,.05,.12,.14,.21,.26,.27,5.54,2.71,11.21,4.32,16.86,4.78,3.96,.34,7.94,.06,11.81-.83-2.03,4.13-8.4,18.38-10.78,38.4-.03,.24,.09,.47,.3,.57l5.99,2.87c.09,.04,.18,.06,.27,.05,.08,0,.16-.03,.23-.08,.15-.1,.24-.26,.25-.45,.66-17.51,8.18-36.3,10.33-41.34,1.12,3.43,4.59,12.22,11.85,17.15,.15,.1,.35,.12,.52,.04Z"/><path class="cls-2" d="M32.8,88.4c-.01,.3,.21,.56,.5,.57,.02,0,.05,0,.07,0,.06,0,.11-.02,.16-.05l5.38-2.44c.14-.06,.25-.19,.29-.34,2.36-8.19,6.27-14.17,11.33-17.31,4.81-.1,10.63,.26,17.78,1.1,.29,.04,.55-.17,.58-.47,.04-.33,.12-.66,.22-.97,.1-.28-.04-.59-.31-.69h-.02c-7.27-2.41-14.81-3.86-22.43-4.32-2.34-1.98-4.43-4.26-6.21-6.79-3.46-4.87-5.96-10.87-7.22-17.36-.03-.13-.1-.25-.21-.33l-5.01-3.72c-.17-.12-.39-.14-.57-.03-.18,.1-.28,.31-.26,.52,.5,6.2,2.04,12.23,4.45,17.45,1.7,3.71,3.93,7.13,6.62,10.15-4.49,.25-19.69,1.66-37.63,9.47-.21,.09-.34,.32-.32,.55l.6,6.78c.03,.3,.29,.53,.59,.49,.07,0,.13-.03,.19-.06,15.02-8.13,34.55-10.76,39.86-11.35-2.31,2.71-7.94,10.18-8.43,19.13Z"/><path class="cls-2" d="M115.43,124.18s-.02,0-.03,0l-5.81-3.75-7.98-6.13c-6.83-7.07-11.88-13.91-13.76-16.58,3.43,.71,12.53,2.03,20.28-1.99,.16-.09,.27-.26,.29-.45,.02-.19-.07-.37-.21-.49l-4.75-3.59c-.13-.09-.29-.13-.44-.09-8.05,1.98-15.04,1.45-20.21-1.5-2.48-4.22-5.11-9.6-8.02-16.45-.11-.27-.41-.39-.67-.29-.3,.13-.61,.22-.93,.28-.14,.03-.26,.11-.34,.24-.08,.12-.11,.27-.08,.42,1.64,7.7,4.21,15.16,7.64,22.2-.49,3.08-1.36,6.08-2.58,8.93-2.35,5.52-6.13,10.74-10.93,15.1-.1,.09-.17,.22-.18,.36l-.6,6.33c-.03,.3,.18,.57,.48,.6,.12,.01,.25-.02,.35-.09,5.03-3.6,9.2-7.86,12.41-12.68,2.26-3.37,4.01-7.07,5.19-10.98,1.62,2.55,6.01,8.99,13.18,16.52l3.83,4.36,4.66,4.27,4.25,3.47s0,.07,.04,.09l.28,.17,.05,.04h.01l4.77,2.89s.1,.01,.13-.03l4.82-7.94s.01-.1-.03-.13l-5.11-3.11Z"/></g><g><path class="cls-2" d="M628.9,117.54c-.86-2.05-2.03-3.71-3.49-4.98-1.46-1.27-3.11-2.16-4.94-2.67-1.28-.36-2.6-.56-3.93-.61l11.86-19.68h-27.15v7.53h15.9l-11.58,18.55,.31,.24c.84-.32,1.78-.59,2.82-.81,1.05-.21,2.3-.32,3.77-.32,3.03,0,5.44,.88,7.22,2.63,1.78,1.76,2.67,4.17,2.67,7.25,0,2.32-.48,4.33-1.45,6.03-.97,1.7-2.26,3.01-3.88,3.93-1.62,.92-3.4,1.38-5.34,1.38s-3.7-.49-5.45-1.46c-1.75-.97-3.1-2.08-4.04-3.32l-3.92,6.56c1.62,1.73,3.67,3.12,6.16,4.17,2.48,1.05,4.98,1.58,7.49,1.58,3.35,0,6.4-.74,9.14-2.23,2.75-1.49,4.96-3.6,6.63-6.36,1.67-2.75,2.51-6.02,2.51-9.8,0-3.02-.43-5.56-1.29-7.61Z"/><path class="cls-2" d="M577.46,129.05c2.09-2.48,4.01-4.98,5.77-7.49,1.75-2.51,3.15-5.06,4.2-7.65,1.05-2.59,1.57-5.24,1.57-7.94,0-3.02-.68-5.83-2.04-8.42-1.36-2.59-3.26-4.67-5.69-6.24-2.43-1.57-5.3-2.35-8.59-2.35-3.92,0-7.23,.78-9.93,2.35-2.7,1.57-4.75,3.63-6.16,6.2-1.41,2.57-2.12,5.33-2.12,8.3,0,1.3,.24,2.79,.71,4.5,.01,.04,.03,.08,.04,.12h7.55s-.01-.03-.02-.04c-.55-1.43-.82-3.04-.82-4.82,0-.97,.18-1.98,.55-3.04,.37-1.05,.91-2.04,1.65-2.96,.73-.92,1.7-1.66,2.9-2.23,1.2-.57,2.67-.85,4.39-.85,1.26,0,2.46,.2,3.61,.61,1.15,.41,2.17,1.03,3.06,1.86,.89,.84,1.61,1.88,2.16,3.12,.55,1.24,.82,2.75,.82,4.54,0,2.7-.71,5.46-2.12,8.26-1.41,2.81-3.32,5.72-5.73,8.75-2.41,3.03-5.13,6.16-8.16,9.4s-6.23,6.53-9.57,9.88h35.23v-7.53h-18.58c1.77-2.11,3.55-4.21,5.32-6.32Z"/></g></svg>