<?xml version="1.0" encoding="UTF-8"?><svg id="Ebene_1" xmlns="http://www.w3.org/2000/svg" viewBox="0 0 68.43 101.86"><defs><style>.cls-1{fill:#fff;}</style></defs><path class="cls-1" d="M32.32,14.28c-1.92,1.89-2.95,3.91-4.27,5.72-.44,.61-.87,1.24-1.39,1.78-.53,.55-1.23,1.04-1.98,.46-.79-.62-.35-1.3,.1-1.96,1.56-2.28,3.09-4.58,4.7-6.97-1.34-1.26-2.95-.56-4.33-.89-.85-.2-1.74-.22-2.57-.44-.49-.13-.85-.61-.81-1.15,.05-.73,.57-1.11,1.28-1.08,1.63,.08,3.26,.21,4.89,.32,.62,.04,1.26,.14,1.79-.39,.41-1.08-.29-1.91-.74-2.77-.46-.89-1.12-1.69-1.53-2.6-.49-1.07-1.66-2.52-.18-3.31,1.62-.87,1.9,1.08,2.51,2.03,.85,1.34,1.59,2.76,2.75,4.8,1.08-2.74,1.69-4.9,2.85-6.78,.42-.69,.87-1.35,1.75-.93,.88,.42,.61,1.24,.41,1.97-.43,1.55-1.47,2.92-1.47,4.67,1.81,.75,3.24-.47,4.8-.66,.74-.09,1.46-.38,2.2-.55,.66-.15,1.31-.09,1.59,.62,.35,.87-.13,1.51-.91,1.76-1.68,.54-3.4,.92-5.08,1.44-.8,.25-1.79,.18-2.45,1.33,2.15,1.68,4.69,2.67,7.03,4.02,1.1,.64,3.65,.78,2.58,2.81-.84,1.58-2.49,.02-3.64-.49-2.04-.91-3.98-2.06-6.4-3.34-.08,2.57,1,4.39,1.65,6.3,.28,.83,.74,1.6,.99,2.44,.08,.26-.16,.73-.39,.96-.41,.4-.97,.31-1.37-.02-.9-.75-1.27-1.85-1.72-2.89-.85-1.94-1.22-4.08-2.62-6.22Z"/><path class="cls-1" d="M52.04,51.14c-.1-1.79-.2-3.58-.29-5.37-.03-.65,.16-1.25,.8-1.42,.82-.22,1.27,.34,1.42,1.1,.18,.93,.24,1.89,.39,2.84,.19,1.27,.04,2.64,.88,4.03,1.61-1.81,3.09-3.49,4.59-5.16,.57-.63,1.25-1.35,2.03-.65,1,.89,.2,1.7-.44,2.43-.93,1.07-2.02,1.98-2.97,3.76,2.59-.4,4.87-.8,7.16-1.1,1.03-.14,2.6-.97,2.8,.75,.19,1.69-1.5,1.47-2.52,1.69-1.67,.35-3.37,.54-5.04,.86-.85,.16-1.8,.12-2.65,1.09,1.26,.78,2.38,1.47,3.5,2.17,.57,.36,1.14,.73,1.71,1.1,.79,.51,1.65,1.12,.97,2.24-.65,1.06-1.49,.73-2.31,.06-1.41-1.15-2.91-2.15-4.62-2.77-.16-.32-.38-.56-.72-.24-.05,.05,.11,.38,.18,.57-.1,1.75,.96,3.15,1.15,4.81,.07,.61,.12,1.24-.52,1.56-.84,.42-1.25-.19-1.54-.86-.82-1.91-1.03-4.12-2.23-6.1-1.4,.65-2.04,1.99-2.94,3.01-.63,.71-1.2,1.48-1.86,2.16-.34,.35-.84,.38-1.25,.1-.6-.41-.53-1-.15-1.54,1.09-1.55,2.22-3.08,3.44-4.77-1.1-.64-2.06,.05-3,.15-.78,.08-1.57,.3-2.34,.27-.69-.03-1.37-.39-1.28-1.3,.07-.69,.64-.85,1.25-.96,1.53-.27,3.06-.64,4.92-1.05-.91-1.16-1.92-1.3-2.74-1.74-.63-.34-1.19-.87-.82-1.68,.36-.79,1.12-.72,1.8-.5,.85,.28,1.7,.58,2.55,.86,.15,.13,.32,.41,.45,.38,.45-.09,.37-.45,.25-.78Z"/><path class="cls-1" d="M16.37,88.87c1.44,1.94,3.1,2.3,4.32,3.26,1.15,.9,3.59,1.51,2.51,3.33-1.17,1.98-2.74,0-3.98-.72-2.08-1.24-3.85-3.02-6.51-3.73-1.23,2.23-.74,4.72-1.1,7.05-.13,.85-.1,1.72-.18,2.58-.06,.61-.33,1.13-1.01,1.21-.85,.1-1.45-.46-1.56-1.17-.17-1.12-.05-2.28-.08-3.43-.05-1.97,.63-3.96,0-6.15-2.39,.46-4.62,.91-6.86,1.32-.74,.13-1.5,.01-1.81-.79-.44-1.14,.46-1.54,1.24-1.86,1.83-.76,3.97-.54,5.64-1.57,.4-1.47-.71-1.89-1.4-2.51-1.18-1.06-2.47-1.99-3.62-3.07-.65-.61-1.07-1.5-.27-2.26,.56-.53,1.34-.35,1.98,.08,1.99,1.35,3.62,3.2,6.2,4.44,.83-2.65,.02-5.05,.15-7.4,.07-1.36-.51-3.42,1.39-3.52,2.13-.12,1.36,2.01,1.51,3.3,.15,1.26-.21,2.59,.73,4.14,1.89-1.02,3.22-2.6,4.55-4.19,.55-.66,1.12-1.32,1.72-1.93,.45-.45,1.06-.51,1.57-.18,.52,.33,.66,.93,.5,1.53-.31,1.15-1.08,2.02-1.9,2.83-1.62,1.62-3.32,3.19-4.67,5.51,2.66,.47,4.82-.93,7.13-1.2,1.59-.18,4-1.83,4.59,.24,.77,2.68-2.34,2.13-3.87,2.72-2.12,.8-4.33,1.36-6.91,2.14Z"/></svg>