<svg xmlns="http://www.w3.org/2000/svg" xmlns:xlink="http://www.w3.org/1999/xlink" version="1.1" id="Ebene_1" x="0px" y="0px" viewBox="0 0 841.89 595.28" style="enable-background:new 0 0 841.89 595.28;" xml:space="preserve">
<style type="text/css">
	.st0{fill:#ffffff;}
</style>
<g>
	<path class="st0" d="M545.42,17.68H47.32c-17.06,0-30.9,13.82-30.9,30.9v498.1c0,17.08,13.85,30.92,30.9,30.92h268.16V360.76   h-72.96v-84.52h72.96v-62.32c0-72.31,44.15-111.7,108.67-111.7c30.93,0,57.46,2.31,65.19,3.32v75.58l-44.75,0.02   c-35.08,0-41.85,16.68-41.85,41.14v53.94h83.7l-10.94,84.51h-72.76v216.84h142.67c17.07,0,30.93-13.86,30.93-30.89V48.56   C576.33,31.5,562.49,17.68,545.42,17.68z" fill="#000000"/>
</g>
</svg>