<svg xmlns="http://www.w3.org/2000/svg" xmlns:xlink="http://www.w3.org/1999/xlink" version="1.1" id="Ebene_1" x="0px" y="0px" viewBox="0 0 841.89 595.28" style="enable-background:new 0 0 841.89 595.28;" xml:space="preserve">
<style type="text/css">
	.st0{fill:#ffffff;}
</style>
<g>
	<path class="st0" d="M631.31,177.3c-1.31-29.63-6.1-50.01-12.96-67.66c-7.08-18.74-17.98-35.51-32.25-49.46   c-13.95-14.16-30.83-25.17-49.35-32.14c-17.76-6.86-38.02-11.66-67.65-12.96c-29.85-1.42-39.33-1.74-115.05-1.74   s-85.2,0.33-114.94,1.63c-29.63,1.31-50.01,6.1-67.65,12.96c-18.74,7.08-35.52,17.98-49.47,32.25   c-14.16,13.95-25.16,30.83-32.14,49.35c-6.86,17.76-11.66,38.02-12.96,67.65c-1.42,29.85-1.74,39.33-1.74,115.05   s0.33,85.2,1.63,114.94c1.31,29.63,6.1,50.01,12.97,67.66c7.08,18.74,18.08,35.51,32.25,49.46c13.95,14.16,30.83,25.17,49.35,32.14   c17.76,6.86,38.02,11.66,67.66,12.96c29.74,1.31,39.22,1.63,114.94,1.63s85.2-0.32,114.94-1.63c29.63-1.31,50.01-6.1,67.65-12.96   c37.48-14.49,67.11-44.12,81.61-81.6c6.86-17.76,11.66-38.03,12.96-67.66c1.31-29.74,1.63-39.22,1.63-114.94   S632.62,207.04,631.31,177.3z M581.09,405c-1.2,27.24-5.78,41.95-9.59,51.75c-9.37,24.3-28.65,43.58-52.95,52.95   c-9.81,3.81-24.62,8.39-51.75,9.58c-29.42,1.31-38.24,1.63-112.65,1.63s-83.35-0.32-112.66-1.63c-27.24-1.2-41.95-5.77-51.75-9.58   c-12.09-4.47-23.1-11.55-32.03-20.81c-9.26-9.04-16.34-19.94-20.81-32.03c-3.81-9.81-8.39-24.62-9.58-51.75   c-1.31-29.42-1.63-38.24-1.63-112.66s0.32-83.35,1.63-112.65c1.2-27.24,5.77-41.95,9.58-51.75c4.47-12.1,11.55-23.1,20.92-32.03   c9.04-9.26,19.93-16.34,32.03-20.81c9.81-3.81,24.62-8.39,51.75-9.59c29.42-1.31,38.24-1.63,112.65-1.63   c74.52,0,83.35,0.33,112.66,1.63c27.24,1.2,41.95,5.78,51.75,9.59c12.09,4.46,23.1,11.55,32.03,20.81   c9.26,9.04,16.34,19.94,20.81,32.03c3.81,9.81,8.39,24.62,9.59,51.75c1.31,29.42,1.63,38.24,1.63,112.65S582.39,375.58,581.09,405z   " fill="#000000"/>
	<path class="st0" d="M354.04,148.97c-79.09,0-143.27,64.17-143.27,143.27S274.94,435.5,354.04,435.5   c79.1,0,143.27-64.17,143.27-143.27S433.13,148.97,354.04,148.97z M354.04,385.17c-51.31,0-92.93-41.62-92.93-92.93   s41.62-92.93,92.93-92.93c51.32,0,92.93,41.62,92.93,92.93S405.35,385.17,354.04,385.17z" fill="#000000"/>
	<path class="st0" d="M536.42,143.3c0,18.47-14.98,33.45-33.45,33.45c-18.47,0-33.45-14.98-33.45-33.45   c0-18.47,14.98-33.45,33.45-33.45C521.44,109.86,536.42,124.83,536.42,143.3z" fill="#000000"/>
</g>
</svg>