<?xml version="1.0" encoding="UTF-8"?><svg id="Ebene_1" xmlns="http://www.w3.org/2000/svg" viewBox="0 0 597.16 841.89"><defs><style>.cls-1{fill:#fff;}.cls-2{fill:#9bb4df;}.cls-3{fill:#bcbfe1;}.cls-4{fill:#96aad8;}.cls-5{fill:#304f9e;}</style></defs><g><path class="cls-1" d="M9.81,180.76c4.06,6.15,8.07,12.34,12.12,18.5,2.37,3.61,5.46,5.69,9.5,6.53,4.48,.93,9,.74,13.49,1.23,8.44,.93,16.91,1.57,25.41,.65,3.25-.35,6.6-.37,9.84,.07,6.29,.85,12.61,1.1,18.86,.3,10.67-1.35,20.95,.09,31.22,3.37,10.27,3.28,20.15,7.82,30.4,11.17,9.72,3.17,19.51,6.18,29.56,7.55,9.54,1.3,18.89,3.39,28.15,6.16,3.57,1.07,7.16,2.11,10.37,4.23,5.1,3.37,10.67,4.47,16.51,4.74,3.35,.16,5.81-1.23,7.86-4,1.23-1.66,2.3-3.42,3.1-5.38,2.23-5.44,4.47-10.98,5-16.9,.74-8.14,3-15.82,4.77-23.64,1.61-7.09,5.47-12.26,12.01-14.34,4.5-1.43,8.84-3.36,12.91-5.85,10.95-6.71,22.84-9.11,35.07-10.19,7.22-.64,14.6-.51,21.53-3.08,13.11-4.86,26.18-9.91,38.88-16.02,8.58-4.13,17.2-7.9,26.49-9.46,8.55-1.43,16.85-3.96,25.06-6.94,4.35-1.58,7.66-4.6,10.51-8.45,.37-.5,.68-1.01,.92-1.54,13.63-7.42,24.8-19.43,38.52-26.72,2.5-1.33,4.96-2.52,7.74-2.83,2.58-.29,5.21-.16,7.79,.12,6.35,.68,12.66,2.28,18.73,4.43,5.34,1.9,11.03,4.1,15,8.67,1.49,1.72,2.57,3.68,3.57,5.77,.74,1.56,1.55,3.01,2.87,4.05,2.2,1.76,5.08,2.42,7.7,2.96,3.13,.64,6.33,.71,9.5,.7,7.1-.02,14.46-.75,21.44,1.07,6.15,1.6,11.02,6.08,14.94,11.37V0H1.89V171.79c3.02,2.57,5.67,5.56,7.92,8.97Z"/><path class="cls-1" d="M576.85,528.38l-82.49-5.94-61.78,77.7-152.66,39.7-95.71-55.02-133.73-6.24c-1.27-.62-2.52-1.3-3.72-2.03-2.98-1.79-5.79-3.84-8.52-5.99-1.28-1.01-2.57-2.03-3.76-3.15-1.21-1.14-2.35-2.36-3.42-3.63-2.04-2.45-3.81-5.11-5.53-7.79-1.81-2.82-3.6-5.67-5.57-8.38-.9-1.24-1.82-2.49-2.86-3.61-1-1.07-2.09-2.05-3.23-2.97-2.44-1.97-5.08-3.67-7.77-5.28-1.39-.84-2.8-1.65-4.21-2.46v308.6H597.16v-315.65l-20.31,2.15Z"/></g><g><path class="cls-1" d="M544.81,481.35l45.69,39.29s11.47,11.92,0,13.55c-11.47,1.63-39.52,6.16-39.52,6.16l-42.4,25.35-7.32-19.48"/><polyline class="cls-1" points="544.82 489.31 544.81 506.8 539.37 530.75 510.43 566.84 506.43 565.34"/><path class="cls-1" d="M372.37,683.67l-.08-.04-.08-.04-68.07-33.09-3.43-26.79-2.63-20.52-.73-5.73-1.09-8.48-.24-1.86-.79-6.21-1.02-7.98-.51-3.98,58.59-27.28,40.07-18.65,.54-.41,4.85-3.76,7.7-5.98,15.49-12.01,5.68-4.41,41.8-32.41,4.99,.47,43.49,4.1h.05s.04,0,.04,0h.09s5.42,.52,5.42,.52l22.31,12.19-6.6,46.53-2.45,3.13-26.14,33.57-1.17,1.09-6.8,6.3-63.53,58.93-1.85,1.5-51.2,41.49-2.71,2.2s0,0,0,0l-8.3,6.73-1.69,.85Z"/><g><path class="cls-1" d="M278.73,585.74c-1.19-2.13-2.2-4.43-2.38-6.87-.19-2.43,.55-5.04,2.38-6.65,1.55-1.37,3.7-1.89,5.77-1.87,3.19,.02,6.24,1.19,9.2,2.39,4.04,1.64,8.1,3.4,11.44,6.2,4.68,3.93,14.95,26.93,3.34,26.68-11.93-.25-24.17-9.9-29.74-19.88Z"/><path class="cls-3" d="M259.71,552.62c-.05,0-.1,0-.15,0,0,0-.08,0-.08,0,.01,.24,.03,.47,.03,.71,.07,.06,.14,.11,.2,.17v-.88Z"/><path class="cls-5" d="M99.9,471.38c.99,.8,1.82,1.73,2.14,3,.15,.61,.28,1.22,.35,1.84,.22,1.84-.35,3.38-1.85,4.51-.45,.34-.91,.65-1.35,1-.79,.62-1.39,1.41-1.76,2.35-.46,1.15-.36,2.26,.36,3.29,.6,.87,1.23,1.7,1.96,2.48,2.09,2.22,2.14,2.35,2.69,5.34,.08,.46,.14,.93,.02,1.38-.33,1.31-.61,2.65-1.18,3.87-.84,1.8-1.48,3.66-2.02,5.56-.38,1.34-1.05,2.56-2.09,3.54-1.3,1.22-2.55,2.49-3.91,3.64-1.15,.98-2.34,1.93-3.62,2.76-1.44,.93-2.87,1.88-4.29,2.84-1.65,1.1-3.21,2.32-4.7,3.62-1.12,.97-2.11,2.07-3.29,2.98-.68,.52-1.21,1.22-1.67,1.95-.15,.23-.22,.5-.03,.74,.19,.24,.47,.23,.73,.12,.51-.22,1.02-.46,1.52-.71,.65-.32,1.26-.74,1.97-.91,1.48-.35,2.95-.72,4.46-.89,2.68-.31,5.37-.58,8.06-.88,3.7-.42,7.42-.72,11.14-.82,2.41-.07,4.8-.31,7.2-.55,1.94-.19,3.84-.61,5.74-1.03,1.78-.39,3.59-.49,5.4-.55,2.47-.09,4.92-.48,7.38-.72,3.42-.33,6.8-.88,10.06-2.02,.85-.3,1.72-.56,2.57-.89,.28-.11,.55-.23,.82-.35,.35-.16,.68-.33,1.01-.53,.2-.12,.39-.24,.57-.38-.09-.5-.56-.61-.9-.83-.89-.55-1.83-1.05-2.64-1.73-1.32-1.11-2.8-1.94-4.31-2.77-2.15-1.18-3.93-2.74-4.97-5.04-.32-.71-.79-1.37-1.24-2.02-1.6-2.3-3.67-4.21-5.52-6.3-1.01-1.13-1.98-2.29-2.88-3.5-2.09-2.83-4.15-5.68-6.19-8.55-1.75-2.47-3.74-4.75-5.65-7.09-2-2.45-4-4.89-6.31-7.06-1.15-1.08-2.44-2-3.71-2.94-.66-.49-.89-.44-1.65,.13,.3,.87,.86,1.54,1.57,2.11Z"/><path class="cls-5" d="M177.83,527.73c-4.18,4.72-8.21,9.56-12.46,14.22-3.65,4-7.39,7.91-11.22,11.73-3.47,3.46-6.04,7.45-7.59,12.13-.57,1.72-.96,3.52-1.85,5.1-1.59,2.81-1.6,5.86-1.57,8.94,0,.07,0,.13,.02,.2,.06,.23,.12,.45,.39,.53,.3,.08,.51-.06,.66-.31,.3-.51,.6-1.02,.87-1.55,1.18-2.33,3.04-3.76,5.59-4.31,1.13-.24,2.2-.68,3.24-1.19,.8-.39,1.61-.76,2.41-1.14,2.92-1.38,5.49-3.26,7.78-5.53,.61-.61,1.15-1.28,1.58-2.02,1.73-3.02,2.81-6.23,2.97-9.74,.13-2.99,.78-5.86,1.92-8.64,.72-1.75,1.73-3.33,2.66-4.96,1.02-1.8,2.33-3.26,4.27-4.1,2.14-.93,3.77-2.52,5.36-4.16,.66-.68,1.14-1.47,1.37-2.38,.31-1.24,.6-2.49,.59-3.79-.02-2.73,.75-5.18,2.48-7.34,.94-1.17,2.07-1.4,3.43-1.12,.58,.12,1.15,.29,1.69,.53,1.68,.77,3.27,.52,4.8-.41,.24-.14,.58-.23,.52-.63-.36,0-.73-.02-1.09,0-.86,.06-1.66-.17-2.34-.65-1.95-1.38-4.02-2.62-5.4-4.67-.58-.87-1.17-.77-1.61,.17-.48,1.41-1.3,2.66-2,3.97-2.11,3.97-4.48,7.77-7.47,11.15Z"/><path class="cls-5" d="M151.77,516.51c-1.63,1.49-2.96,3.21-3.86,5.21-.87,1.93-2.12,3.55-3.55,5.08-1.59,1.71-3.15,3.46-4.52,5.37-.71,.99-1.52,1.91-2.51,2.65-.82,.61-1.55,1.33-2.28,2.05-.96,.95-1.98,1.84-3.27,2.35-.21,.08-.4,.23-.58,.37-.13,.11-.19,.28-.12,.45,.08,.2,.24,.32,.46,.31,.37-.03,.69-.19,1.02-.34,2.14-.97,4.37-1.69,6.65-2.19,2.06-.45,4.11-.92,6.14-1.5,.76-.22,1.53-.41,2.31-.55,3.48-.61,6.92-1.34,10.2-2.72,1.07-.45,2.22-.82,3-1.68,1.43-1.59,3.16-2.79,4.85-4.04,1.67-1.24,3.22-2.62,4.77-4,.52-.46,1.04-.92,1.56-1.37-.13-.18-.31-.24-.52-.23-1.72,.08-3.38-.34-5.06-.61-1.46-.24-2.84-.65-4.14-1.43-1.66-.99-3.43-1.79-5.41-1.96-.49-.04-.94-.27-1.24-.72-.38-.58-.96-.85-1.61-1.06-.55-.18-1.1-.16-1.65-.18-.11,.34-.41,.51-.65,.73Z"/><path class="cls-1" d="M517.46,469.73c.4,.97,.79,1.94,1.19,2.91,.4,.97,.83,1.92,1.32,2.85,.1,.19,.21,.36,.31,.55v-1.82c-.21-.42-.42-.85-.64-1.27-.76-1.42-1.59-2.81-2.47-4.17-.1-.15-.21-.3-.31-.45,.21,.46,.41,.93,.6,1.4Z"/><path class="cls-1" d="M519.72,475.2c-.47-.93-.89-1.89-1.29-2.85-.4-.97-.79-1.94-1.19-2.91-.22-.52-.44-1.04-.68-1.55-.72-1.06-1.46-2.11-2.23-3.13-.98-1.29-2.01-2.54-3.09-3.75-.2-.22-.41-.44-.61-.66-.86-.48-1.69-1.05-2.49-1.71-2.55-2.1-5.07-4.25-7.5-6.58-.87-.83-1.6-1.81-2.35-2.8-1.98-2.6-4.06-4.98-6.59-6.65-1.14-.75-2.17-1.78-3.24-2.71-3.15-2.74-6.76-4.09-10.21-5.89-1.7-.89-3.44-1.66-5.18-2.45-2.84-1.3-5.66-1.14-8.54-.5-4.13,.92-7.83,3.09-11.3,6.12-3.2,2.79-6.11,6.06-9.22,9.01-2.93,2.77-5.88,5.51-9.12,7.64-4.03,2.64-7.74,6-11.63,8.94-2.21,1.67-4.43,3.33-6.66,4.97-.38,.28-.82,.53-1.24,.61-2.52,.47-4.99,1.36-7.54,1.64-2.21,.23-4.39,.85-6.52,1.7-2.82,1.13-5.68,1.84-8.67,1.92-1.74,.04-3.53,.13-5.23,.98-1.2,.6-1.98,1.6-2.39,3.12-1.23,4.6-3.38,8.4-6.06,11.64-2.85,3.45-5.56,7.14-8.93,9.79-1.08,.85-2.15,1.38-3.44,1.37-2.1-.02-4.21-.29-6.25,.85-2.84,1.59-5.42,3.73-7.72,6.37-1.03,1.18-2.12,2.27-3.02,3.73-1.13,1.83-2.04,3.82-3.01,5.77-1.7,3.39-3.87,6.2-6.22,8.75-6.51,7.07-13.9,12.32-21.52,16.94-7.96,4.83-16,9.46-24.07,13.97-4.34,2.43-8.52,5.33-12.59,8.47-1.19,.91-2.38,1.81-3.57,2.71,3.38,2.61,6.31,5.54,8.95,8.68,.68,.81,1.35,1.64,2,2.47,.97,1.25,1.89,2.53,2.8,3.83,.39-.44,.82-.82,1.27-1.15,0,0,0,0,0,0,.3-.21,.6-.41,.91-.58,2.57-1.37,5.12-2.88,7.76-3.95,1.94-.78,4.03-.94,6.06-1.38,5.31-1.18,10.64-2.22,15.79-4.37,.95-.4,1.94-.65,2.92-.87,2.79-.62,5.3,.19,7.43,2.75,.29,.35,.58,.68,.86,1.04,.79,1.02,1.65,1.84,2.63,2.4,6.85-3.02,13.67-6.09,20.55-9.02,6.02-2.56,12.42-4.27,18.29-7.11,3.43-1.66,6.85-3.33,10.25-5.04,0-.65,.01-1.31,.04-1.96,.05-1.4,.56-2.34,1.54-2.84,.52-.26,1.04-.52,1.56-.76,2.16-.99,4.18-2.31,6.09-4.02,2.99-2.68,6.33-4.58,9.59-6.61,2.28-1.42,4.44-2.97,6.3-5.25,3.02-3.69,6.63-6.16,10.37-8.24,5.62-3.14,10.3-7.72,13.79-14.36,1.66-3.16,3.83-5.68,6.1-8.04,4.58-4.75,9.28-9.3,13.78-14.19,2.29-2.49,4.87-4.33,7.65-5.72,1.92-.96,3.83-1.98,5.74-2.96,1.66-.85,3.38-1.47,5.14-1.81,1.56-.3,3.1-.26,4.6,.51,1.3,.66,2.61,1.26,3.9,1.96,2.42,1.31,4.87,2.46,7.44,3.22,2.92,.87,5.57,2.54,7.42,5.89,1.25,2.26,3.07,3.34,5.08,3.9,1.69,.47,3.38,.94,5.08,1.25,2.38,.43,4.69,1.25,6.98,2.15,1.89,.74,3.56,2.01,5,3.71v-25.36c-.19-.34-.38-.68-.56-1.02Zm-96.76,4.51c-.36,1.94-1.08,3.7-1.96,5.3-.89,1.63-1.48,3.39-1.92,5.3-.44,1.92-.27,3.68,.55,5.24,1.04,1.98,1.31,4.11,1.31,6.44,0,2.45-.92,4.01-2.44,5.05-.68,.47-1.45,.71-2.2,1.01-5.26,2.12-10.53,4.19-15.41,7.63-1.91,1.34-3.81,2.71-5.73,4.03-1.35,.93-2.26,2.29-2.68,4.25-.32,1.48-.73,2.92-1.11,4.37-.81,3.1-2.39,5.22-4.73,6.34-5.28,2.53-10.62,4.72-16.27,5.43-2.65,.33-5.28,.92-7.89,1.67-.55,.16-1.11,.29-1.56,.71-2,1.84-4.25,3.18-6.07,5.36-1.07,1.28-2.38,1.9-3.81,1.92-1.39,.02-2.12-1.49-1.35-2.96,1.38-2.64,2.57-5.46,4.23-7.86,1.59-2.31,3.48-3.81,5.77-4.53,.92-.29,1.84-.58,2.75-.87,1.04-.33,2.06-.82,2.86-1.72,3.26-3.65,7.06-6.04,10.95-8.24,2.78-1.57,5.05-3.86,6.67-7.3,1.55-3.3,3.58-6.14,5.41-9.17,.45-.75,1.08-1.25,1.67-1.8,1.36-1.26,2.72-2.54,4.06-3.83,.59-.56,1.12-1.23,1.51-2.03,1.22-2.52,2.72-4.8,3.61-7.61,1.2-3.82,3.52-6.19,6.3-7.72,4.51-2.47,9.08-4.76,13.63-7.1,.67-.34,1.35-.68,1.89-.64,1.62,0,2.33,1.28,1.95,3.32Z"/><path class="cls-4" d="M364.64,688.78c-.81,.5-1.62,1-2.43,1.5,3.46-1.69,6.73-3.79,9.78-6.42-2.33,1.77-4.86,3.37-7.35,4.91Z"/><path class="cls-4" d="M339.78,706.03c1.84-1.51,3.66-3.06,5.51-4.54,1.95-1.56,3.9-3.11,5.88-4.59-2.51,1.44-5.05,2.83-7.62,4.14-1.69,1.88-3.28,3.88-4.98,5.72,.31-.06,.63-.29,.93-.51,.1-.07,.19-.16,.28-.24Z"/><path class="cls-4" d="M379.8,675.3c-.34,.63-.71,1.22-1.11,1.81,.94-.68,2-1.04,3.16-1,.39,.02,.78-.06,1.16-.13,2.31-.43,4.59-1.04,6.93-1.28,.05,0,.1-.02,.16-.02,10.29-9.09,20.65-18.11,30.92-27.22,5.39-4.78,10.59-9.74,15.69-14.81-2.15-1.2-4.33-2.29-6.69-2.64-1.42-.21-2.48-1.08-3.44-2.41-1.8-2.5-3.62-4.96-5.4-7.49-1.1-1.56-2.26-2.99-3.04-4.91-.84-2.07-2.28-3.16-3.98-3.66-.92-.27-1.74-.04-2.5,.75-1.71,1.79-2.78,4.14-2.76,6.97,.04,4.42-.36,8.76-.71,13.12-.32,3.93-.86,7.81-1.62,11.64-.32,1.61-1.02,2.67-2.14,3.42-2.6,1.74-5.37,2.76-8.2,3.62-3.63,1.11-7.37,1.36-11.02,2.3-2.6,.67-5.11,1.54-7.03,4.14-.31,.43-.62,.87-.92,1.31,4.77,3.65,5.41,11.13,2.53,16.5Z"/><path class="cls-4" d="M507.52,568.5c.97-.55,1.94-1.11,2.91-1.66-.47-.64-1.11-1.02-1.85-1.14-.72-.12-1.43-.36-2.15-.36-3.58,.02-7.05-1.16-10.59-1.64-3.26-.44-6.41-1.88-9.69-2.24-2.39-.27-4.75-.86-7.03-1.8-2.26-.94-4.54-1.2-6.89-1.3-3.56-.16-6.45,1.82-9.29,4.2-.94,.79-1.52,1.94-1.62,3.42-.1,1.37-.55,2.52-1.16,3.58-.5,.88-1.01,1.74-1.53,2.59-1.75,2.84-3.26,5.93-5.26,8.48-1.29,1.64-2.73,3.04-4.47,4.29,.06-1.16,.17-1.96,.12-2.74-.31-5.45,.43-10.8,.83-16.17,.15-2.03,.54-4.05,.05-6.09-.48-1.96-1.32-2.63-2.78-1.95-2.99,1.4-5.91,3.01-8.35,5.8-1.6,1.83-3.3,3.47-5.39,4.25-2.84,1.06-5.71,1.91-8.63,2.46-5.36,1.02-10.6,2.49-15.51,5.64-1.88,1.21-3.55,2.67-4.81,4.92-1.75,3.13-3.68,6.06-6.13,8.29-1.28,1.16-2.63,2.18-3.93,3.31-.75,.65-1.42,1.4-1.74,2.57-.39,1.42-.23,2.29,.79,2.92,.93,.58,1.69,1.39,2.46,2.24,1.9,2.11,4.07,3.16,6.57,3.32,2.38,.16,4.78,.29,7.08,1.29,.81,.35,1.65,.33,2.48,.28,1.77-.11,3.41,.52,5,1.45,3.57,2.1,7.02,4.46,10.12,7.64,.57,.58,1.2,1.09,1.86,1.46,3.82,2.1,7.32,4.96,10.81,7.85,1.08,.9,2.17,1.76,3.28,2.58,7.88-8.09,15.54-16.4,23.19-24.71,12.09-13.12,25.66-24.24,41.26-33.03Z"/><path class="cls-4" d="M550.49,522.29c-.62-.92-1.26-1.81-2.01-2.54-1.25-1.23-2.15-2.82-2.86-4.79-1.46-4.08-2.88-8.22-5.44-11.29-3.25-3.9-6.27-8.16-9.3-12.4-.19-.26-.38-.51-.57-.76-1.55-1.97-3.35-3.46-5.38-4.31-2.47-1.04-4.95-1.99-7.51-2.49-1.83-.36-3.65-.91-5.47-1.45-2.16-.65-4.12-1.91-5.46-4.53-1.99-3.89-4.83-5.83-7.98-6.84-2.77-.89-5.4-2.22-8-3.74-1.38-.81-2.8-1.51-4.2-2.27-1.61-.89-3.27-.94-4.95-.59-1.9,.4-3.74,1.11-5.53,2.1-2.06,1.14-4.11,2.32-6.18,3.44-2.98,1.62-5.77,3.76-8.23,6.64-4.84,5.68-9.89,10.96-14.82,16.47-2.45,2.74-4.78,5.67-6.56,9.33-3.75,7.71-8.78,13.03-14.83,16.67-4.02,2.42-7.91,5.29-11.15,9.57-2,2.64-4.32,4.44-6.78,6.09-3.51,2.35-7.1,4.56-10.31,7.67-2.05,1.98-4.22,3.51-6.54,4.66-.56,.28-1.12,.58-1.68,.88-1.06,.58-1.6,1.68-1.66,3.3-.03,.76-.04,1.52-.04,2.28,0,1.37,.03,2.73,.16,4.1,0,1.02,.01,2.04,.01,3.06,0,1.02-.04,2.04,0,3.06,.11,2.65,1.42,4.69,3.25,4.95,1.5,.21,2.96,.63,4.4,1.23,2.63,1.1,5.19,.84,7.73-.55,1.52-.83,2.92-1.96,4.26-3.23,1.92-1.81,4.04-2.47,6.29-2.52,.84-.02,1.68,0,2.51-.03,3.37-.13,6.66-.74,9.83-2.49,3.51-1.94,7.04-3.79,10.57-5.64,2.44-1.28,4.61-3.18,6.64-5.47,3.14-3.53,6.15-7.27,9.09-11.14,1.59-2.1,3.4-2.95,5.6-2.23,2.39,.77,4.81,1.36,7.23,1.92,4.28,.98,8.57,1.38,12.83-.07,3.6-1.23,7.25-2.19,10.84-3.47,4.41-1.57,8.78-3.56,12.42-7.64,5.16-5.78,11-9.87,16.79-14.11,1.07-.78,2.14-.92,3.3-.56,2.17,.67,4.27,1.68,6.38,2.62,7.08,3.15,13.97,7.14,21.11,10.05,.4,.16,.82,.23,1.23,.23,.57,0,1.05-.35,1.32-1.1,.3-.82,.03-1.48-.36-2.07Z"/><path class="cls-4" d="M391.39,528.33c.38-1.45,.79-2.89,1.11-4.37,.42-1.96,1.34-3.31,2.68-4.25,1.92-1.32,3.82-2.69,5.73-4.03,4.88-3.44,10.15-5.52,15.41-7.63,.74-.3,1.52-.54,2.2-1.01,1.52-1.05,2.45-2.6,2.44-5.05,0-2.33-.28-4.46-1.31-6.44-.82-1.56-1-3.32-.55-5.24,.44-1.91,1.02-3.67,1.92-5.3,.88-1.6,1.59-3.36,1.96-5.3,.38-2.04-.33-3.32-1.95-3.32-.53-.04-1.22,.3-1.89,.64-4.55,2.34-9.12,4.63-13.63,7.1-2.78,1.53-5.11,3.9-6.3,7.72-.88,2.81-2.38,5.09-3.61,7.61-.39,.8-.92,1.47-1.51,2.03-1.35,1.29-2.7,2.56-4.06,3.83-.59,.55-1.22,1.05-1.67,1.8-1.83,3.03-3.86,5.86-5.41,9.17-1.61,3.45-3.89,5.73-6.67,7.3-3.88,2.2-7.69,4.58-10.95,8.24-.8,.9-1.82,1.39-2.86,1.72-.92,.29-1.84,.59-2.75,.87-2.28,.71-4.18,2.22-5.77,4.53-1.66,2.4-2.85,5.22-4.23,7.86-.77,1.47-.04,2.98,1.35,2.96,1.43-.02,2.75-.64,3.81-1.92,1.83-2.19,4.08-3.53,6.07-5.36,.46-.42,1.02-.56,1.56-.71,2.61-.75,5.24-1.34,7.89-1.67,5.65-.7,10.99-2.89,16.27-5.43,2.34-1.12,3.92-3.24,4.73-6.34Z"/><path class="cls-4" d="M335.35,574.52c-.28-.36-.57-.7-.86-1.04-2.13-2.55-4.63-3.37-7.43-2.75-.98,.22-1.97,.48-2.92,.87-5.15,2.15-10.48,3.19-15.79,4.37-2.02,.45-4.11,.6-6.06,1.38-2.65,1.06-5.19,2.57-7.76,3.95-.31,.17-.62,.36-.91,.58,0,0,0,0,0,0-.45,.32-.88,.7-1.27,1.15,.99,1.42,1.94,2.85,2.88,4.31,1.21-.4,2.44-.4,3.68-.35,.08,0,.17,0,.25,.01,.02,0,.04,0,.06,0,.9,.05,1.79,.31,2.5,1.06,1.31,1.39,2.61,2.79,3.54,4.68,.05,.11,.11,.21,.16,.32,1.58,3.46,3.96,5,6.39,4.86,2.86-.06,5-.73,7.11-1.7,6.7-3.1,12.7-8,18.84-12.55,.96-.71,1.87-1.6,2.59-2.73,.98-1.55,.66-2.97-.83-3.38-.54-.15-1.05-.37-1.53-.65-.98-.56-1.84-1.37-2.63-2.4Z"/><path class="cls-4" d="M387.14,574.39c-1.31-1.26-2.67-2.4-4.08-3.43-1.03-.75-2.14-1.35-3.31-1.42-1.77-.1-3.38-.82-4.94-1.83-.91-.59-1.86-.98-2.85-.88-1.18-.05-2.25,.31-3.3,.83-2.19,1.09-4.28,2.45-6.29,4.03-2.34,1.84-4.79,3.37-7.39,4.53-1.79,.8-3.68,1.07-5.42,2.13-.61,.37-1.14,.6-1.08,1.62,.06,1.05,.46,1.78,1.23,2.13,.5,.23,.99,0,1.48-.03,1.66-.07,3.28-.98,4.96-.35,1.87,.71,3.75,1.4,5.59,2.2,3.44,1.5,6.31,4.34,9.13,7.2,2.73,2.77,5.64,4.96,8.97,6.14,1.77,.63,3.3-.04,4.66-1.52,.73-.8,1.36-1.73,1.82-2.84,.99-2.4,2.24-4.53,3.75-6.4,1.15-1.41,2.04-3.1,2.79-4.89,.77-1.82,.5-2.9-.98-3.62-1.75-.86-3.27-2.19-4.76-3.62Z"/><path class="cls-5" d="M297.51,590.99c-.76-1.23-1.52-2.45-2.3-3.66-.93-1.45-1.89-2.89-2.88-4.31-.9-1.3-1.83-2.58-2.8-3.83-.65-.84-1.32-1.66-2-2.47-2.64-3.14-5.57-6.07-8.95-8.68-.94-.73-1.91-1.44-2.93-2.11-3.6-2.39-7.06-4.69-10.43-7.11-1.99-1.79-3.61-3.71-5.51-5.34-.07-.06-.14-.11-.2-.17-.12-.1-.23-.2-.35-.3-.71-.57-1.47-1.09-2.3-1.55-.46-.25-.91-.53-1.28-.91-2.24-2.32-4.64-4.49-6.94-6.75-1.22-1.2-2.45-2.4-3.63-3.64-1.28-1.36-2.79-2.39-4.43-3.27-.9-.48-1.81-.98-2.51-1.72-1.11-1.17-2.47-1.95-3.85-2.74-1.38-.78-2.77-1.52-3.66-2.92-.21-.33-.53-.59-.83-.84-2-1.6-4.01-3.19-6.03-4.77-1.92-1.5-3.92-2.89-6.01-4.15-1.31-.79-2.29-1.99-3.53-2.84-2.2-1.5-4.32-3.12-6.62-4.48-.68-.4-1.34-.83-1.94-1.36-.49-.44-1.06-.8-1.68-1.01-.4-.14-.76-.03-1.08,.29-.28,.28-.34,.54-.14,.87,1.24,1.55,2.84,2.74,4.19,4.19,.45,.48,.87,.99,1.44,1.35,1.88,1.17,3.19,2.8,4.05,4.85,.72,1.7,1.47,3.4,2.54,4.91,1.14,1.62,2.16,3.32,3.22,4.99,.49,.77,.78,1.6,.79,2.52,.01,1.12,.02,2.24-.03,3.36-.06,1.24-.43,2.38-1.23,3.38-1.3,1.63-2.39,3.38-3.35,5.24-1.88,3.64-3.13,7.4-2.72,11.57,.03,.3,.05,.59,.08,.89,.1,1.08,.29,2.16,.25,3.25-.08,2.14-.86,3.84-2.98,4.7-.49,.2-.96,.44-1.44,.65-1.83,.81-3.47,1.88-4.89,3.31-2.27,2.28-4.3,4.74-5.79,7.61-.42,.82-.98,1.46-1.76,1.96-1.08,.7-2.16,1.4-3.18,2.18-1.09,.84-2.28,1.41-3.58,1.83-2.29,.73-4.45,1.77-5.86,3.82-1.86,2.71-4.36,4.77-6.78,6.9-1.95,1.71-3.87,3.49-6.02,4.97-.11,.07-.21,.16-.28,.27-.18,.28,0,.61,.34,.63,.21,.01,.38-.08,.55-.18,.69-.4,1.45-.63,2.2-.86,2.27-.69,4.54-1.37,6.78-2.17,.72-.25,1.45-.43,2.2-.56,2.18-.37,4.36-.81,6.51-1.33,.76-.18,1.52-.38,2.28-.59,1.33-.36,2.65-.75,3.97-1.13,14.15,.26,28.29,.53,42.44,.79,4.57,.08,9.17,.18,13.69,.81,1.58,.22,3.14,.5,4.69,.88,1.6,.39,3.16,.87,4.69,1.42,.13,.05,.27,.1,.4,.14,6.14,2.27,11.79,5.75,17.24,9.6,.31,.22,.62,.44,.92,.66,4.06,2.91,8.03,5.99,12.03,8.91,11.1,8.09,24.26,15.4,37.85,13.42-.07-.27-.15-.54-.23-.8-1.57-4.83-6.35-7.95-10.22-11.37-2.28-2.02-4.34-4.19-6.25-6.47-4.16-4.96-7.61-10.42-10.99-15.93-.98-1.6-1.96-3.2-2.95-4.8Z"/><path class="cls-2" d="M377.27,658.8c-.5-.38-1.03-.73-1.62-1.02-1.95-.96-4.17-1.29-6.24-1.99-7.92-2.67-12.67-10.18-19.22-15.19-6.54-5-14.79-7.41-22.28-11.04,.09,.26,.17,.53,.23,.8-13.6,1.98-26.75-5.33-37.85-13.42-4-2.92-7.97-6-12.03-8.91-.31-.22-.61-.44-.92-.66-5.45-3.85-11.09-7.33-17.24-9.6-.13-.05-.26-.1-.4-.14-1.53-.55-3.09-1.03-4.69-1.42-1.55-.37-3.11-.66-4.69-.88-4.52-.63-9.12-.72-13.69-.81-14.15-.26-28.29-.53-42.44-.79-1.32,.38-2.64,.77-3.97,1.13-.76,.21-1.52,.4-2.28,.59-2.15,.52-4.32,.96-6.51,1.33-.75,.13-1.49,.3-2.2,.56-2.24,.79-4.51,1.48-6.78,2.17-.76,.23-1.51,.46-2.2,.86-.17,.1-.34,.2-.55,.18-.34-.02-.52-.35-.34-.63,.07-.11,.17-.2,.28-.27,2.15-1.49,4.07-3.26,6.02-4.97,2.42-2.12,4.92-4.19,6.78-6.9,1.41-2.05,3.56-3.1,5.86-3.82,1.31-.41,2.49-.99,3.58-1.83,1.02-.78,2.1-1.49,3.18-2.18,.77-.5,1.33-1.14,1.76-1.96,1.48-2.87,3.52-5.33,5.79-7.61,1.41-1.42,3.06-2.5,4.89-3.31,.48-.21,.95-.46,1.44-.65,2.12-.86,2.9-2.56,2.98-4.7,.04-1.09-.14-2.17-.25-3.25-.03-.3-.05-.59-.08-.89-.41-4.17,.84-7.93,2.72-11.57,.96-1.86,2.05-3.61,3.35-5.24,.8-1,1.17-2.14,1.23-3.38,.06-1.12,.04-2.24,.03-3.36,0-.91-.3-1.75-.79-2.52-1.06-1.67-2.08-3.37-3.22-4.99-1.07-1.52-1.82-3.21-2.54-4.91-.86-2.04-2.17-3.68-4.05-4.85-.57-.36-.99-.87-1.44-1.35-1.34-1.45-2.94-2.64-4.19-4.19-.22,.33-.32,.72-.44,1.09-.27,.82-.64,1.58-1.3,2.17-.12,.11-.25,.23-.33,.37-.63,1.17-1.61,1.98-2.69,2.69-.08,.05-.14,.14-.21,.21,.06,.4-.28,.49-.52,.63-1.53,.93-3.12,1.18-4.8,.41-.54-.25-1.11-.41-1.69-.53-1.35-.28-2.49-.05-3.43,1.12-1.74,2.16-2.5,4.61-2.48,7.34,0,1.3-.28,2.55-.59,3.79-.23,.9-.71,1.7-1.37,2.38-1.59,1.64-3.22,3.23-5.36,4.16-1.94,.84-3.25,2.3-4.27,4.1-.92,1.64-1.94,3.21-2.66,4.96-1.14,2.78-1.79,5.65-1.92,8.64-.16,3.51-1.24,6.72-2.97,9.74-.43,.75-.97,1.42-1.58,2.02-2.29,2.27-4.86,4.15-7.78,5.53-.8,.38-1.62,.75-2.41,1.14-1.04,.51-2.1,.95-3.24,1.19-2.55,.54-4.42,1.97-5.59,4.31-.27,.53-.57,1.04-.87,1.55-.14,.25-.36,.39-.66,.31-.26-.07-.33-.3-.39-.53-.02-.06-.02-.13-.02-.2-.03-3.08-.02-6.13,1.57-8.94,.9-1.58,1.29-3.39,1.85-5.1,1.55-4.67,4.12-8.67,7.59-12.13,3.83-3.82,7.57-7.73,11.22-11.73,4.25-4.66,8.28-9.5,12.46-14.22,3-3.38,5.36-7.18,7.47-11.15,.7-1.31,1.51-2.55,2-3.97-.11-.32-.36-.36-.64-.28-.47,.13-.96,.24-1.41,.43-1.64,.71-3.14,1.64-4.46,2.85-2.21,2.02-4.48,3.96-7.17,5.34-.55,.28-1.05,.67-1.57,1.01-.52,.45-1.04,.91-1.56,1.37-1.55,1.37-3.1,2.76-4.77,4-1.69,1.25-3.42,2.46-4.85,4.04-.77,.86-1.93,1.23-3,1.68-3.28,1.37-6.72,2.1-10.2,2.72-.78,.14-1.55,.33-2.31,.55-2.03,.58-4.08,1.05-6.14,1.5-2.28,.5-4.51,1.22-6.65,2.19-.33,.15-.66,.32-1.02,.34-.22,.02-.38-.11-.46-.31-.06-.17-.01-.34,.12-.45,.18-.14,.37-.29,.58-.37,1.29-.51,2.3-1.4,3.27-2.35,.73-.72,1.46-1.43,2.28-2.05,.99-.74,1.8-1.66,2.51-2.65,1.37-1.91,2.93-3.66,4.52-5.37,1.42-1.53,2.68-3.16,3.55-5.08,.91-2,2.24-3.73,3.86-5.21,.24-.22,.54-.39,.65-.73-1.25,.04-2.34,.64-3.48,1.04-1.27,.44-2.5,.43-3.78,.23-.29-.05-.59-.06-.88-.09-.19,.14-.38,.26-.57,.38-.33,.2-.67,.37-1.01,.53-.27,.12-.55,.24-.82,.35-.84,.33-1.71,.59-2.57,.89-3.26,1.13-6.64,1.69-10.06,2.02-2.46,.24-4.91,.63-7.38,.72-1.81,.07-3.63,.17-5.4,.55-1.9,.41-3.8,.83-5.74,1.03-2.39,.24-4.78,.49-7.2,.55-3.72,.1-7.44,.4-11.14,.82-2.69,.3-5.37,.57-8.06,.88-1.51,.18-2.98,.54-4.46,.89-.71,.17-1.32,.59-1.97,.91-.5,.25-1.01,.49-1.52,.71-.25,.11-.53,.12-.73-.12-.19-.24-.12-.51,.03-.74,.46-.73,.99-1.43,1.67-1.95,1.18-.91,2.18-2.01,3.29-2.98,1.49-1.29,3.05-2.52,4.7-3.62,1.43-.95,2.85-1.91,4.29-2.84,1.28-.82,2.46-1.78,3.62-2.76,1.36-1.15,2.61-2.42,3.91-3.64,1.04-.98,1.71-2.2,2.09-3.54,.54-1.91,1.18-3.76,2.02-5.56,.57-1.23,.86-2.56,1.18-3.87,.11-.45,.06-.92-.02-1.38-.55-2.98-.59-3.12-2.69-5.34-.73-.77-1.36-1.61-1.96-2.48-.72-1.03-.82-2.14-.36-3.29,.37-.94,.96-1.73,1.76-2.35,.44-.35,.91-.66,1.35-1,1.51-1.14,2.08-2.67,1.85-4.51-.07-.62-.2-1.24-.35-1.84-.32-1.27-1.15-2.21-2.14-3-.71-.57-1.27-1.24-1.57-2.11-.36,0-.67,.21-.85,.45-.86,1.11-2.07,1.83-3.07,2.79-1.38,1.33-2.72,2.69-4.04,4.08-1.2,1.27-2.47,2.47-3.68,3.73-.97,1.02-2.2,1.79-3.43,2.49-.76,.43-1.51,.36-2.19-.23-.37-.32-.76-.63-1.09-1-.51-.57-1.14-.65-1.8-.36-1.04,.45-2,1.01-2.62,2.02-.72,1.17-1.71,2.12-2.79,2.92-2.39,1.77-4.63,3.73-6.78,5.77-2.76,2.63-5.73,4.96-8.9,7.06-3,1.98-5.85,4.17-8.75,6.3-1.44,1.06-2.76,2.24-3.98,3.55-2.67,2.85-5.72,5.26-8.91,7.51-4.72,3.34-9.65,6.31-14.79,8.92v30.91c.02,.25,.04,.5,.05,.74,.03,.77,.09,1.54,.24,2.29,.13,.67,.32,1.33,.58,1.96,.5,1.23,1.25,2.34,2.15,3.3,.83,.89,1.77,1.66,2.75,2.37,.55,.18,1.11,.35,1.66,.54,5.39,2.89,10.65,6.04,15.82,9.38,10.87,7.03,21.85,13.77,33.37,19.67,20.53,10.52,39.84,23.14,59.64,34.91,14.25,8.47,28.61,16.77,42.01,26.59,5.22,3.83,10.35,7.77,15.54,11.63,4.39,3.27,8.82,6.48,13.39,9.5,4.28,2.83,8.65,5.46,13.14,7.79,1.54,1.42,3.2,2.76,5.09,3.94,3.83,2.41,15.76,8.31,25.84,10.72,2.59,.86,5.19,1.69,7.8,2.46,.31,.09,.63,.18,.94,.28,17.81,5.24,36.08,8.5,54.44,9.68,6.6,.42,13.62,.47,19.29-3.42,.06-.04,.12-.09,.18-.14,1.46-1.03,2.77-2.28,4.01-3.62,1.7-1.84,3.3-3.84,4.98-5.72,2.57-1.31,5.11-2.71,7.62-4.14,3.73-2.14,7.41-4.37,11.04-6.62,.81-.5,1.62-1,2.43-1.5,2.49-1.55,5.02-3.14,7.35-4.91,2.59-1.97,4.94-4.16,6.71-6.76,.4-.58,.77-1.18,1.11-1.81,2.88-5.36,2.23-12.85-2.53-16.5Z"/><path class="cls-4" d="M443.07,626.24l35.1-32.48,14.88-13.8s6.99-7.17,12.18-10.15c5.19-2.97,3.34-4.12,3.34-4.12l-24.3,9.48-33.94,43.41"/><polygon class="cls-4" points="371.99 683.87 390.1 674.68 380.71 673.2 371.99 683.87"/></g><path class="cls-1" d="M543.33,491.79l1.48-2.48-1.48,2.48Z"/><polyline class="cls-1" points="543.33 488.71 544.82 489.31 543.33 492.9"/><path class="cls-1" d="M540.47,527.93s-.67,2.13-.83,2.22-.36-2.54-.36-2.54l1.19-.39"/><polyline class="cls-1" points="539.65 530.15 539.49 530.47 539.43 530.57 539.48 529.93 539.43 529.73 539.67 529.89 539.67 530.09"/><path class="cls-2" d="M25.08,565.73S0,540.76,0,535.57s31.92-14.01,31.92-14.01l-6.84,44.17Z"/><polyline class="cls-1" points="548.43 484.46 521.8 460.99 510.43 454.36 491.7 442.61 486.14 445.21 525.62 484.46 552.09 494.44"/></g></svg>