<?xml version="1.0" encoding="utf-8"?>
<!-- Generator: Adobe Illustrator 26.5.0, SVG Export Plug-In . SVG Version: 6.00 Build 0)  -->
<svg version="1.1" id="Ebene_1" xmlns="http://www.w3.org/2000/svg" xmlns:xlink="http://www.w3.org/1999/xlink" x="0px" y="0px"
	 viewBox="0 0 841.89 595.28" style="enable-background:new 0 0 841.89 595.28;" xml:space="preserve">
<style type="text/css">
	.st0{fill:#A9D3EA;}
</style>
<path class="st0" d="M0,0v168.84c11.94,5.24,22.78,12.52,33.07,20.91c11.31,9.23,21.79,19.47,32.65,29.24
	c1.62,1.46,3.26,2.89,4.91,4.31c1.53,0.81,3.05,1.63,4.56,2.48c7.9-0.65,15.64-0.71,22.48,0.55c0.47-0.24,0.94-0.48,1.42-0.7
	c10.11-4.75,19.7-10.46,28.77-17.1c4.7-3.44,9.19-7.11,13.12-11.46c1.8-1.99,3.74-3.8,5.86-5.42c4.27-3.24,8.47-6.59,12.89-9.61
	c4.67-3.2,9.04-6.76,13.11-10.77c3.16-3.11,6.46-6.09,9.98-8.8c1.59-1.22,3.06-2.66,4.11-4.45c0.91-1.55,2.32-2.4,3.85-3.09
	c0.98-0.44,1.91-0.32,2.66,0.55c0.49,0.57,1.06,1.03,1.61,1.52c1.02,0.91,2.11,1.02,3.23,0.36c1.82-1.07,3.62-2.24,5.05-3.81
	c1.78-1.93,3.65-3.77,5.42-5.7c1.94-2.12,3.91-4.2,5.94-6.23c1.47-1.46,3.25-2.56,4.52-4.25c0.28-0.37,0.73-0.68,1.26-0.68
	c1.11-0.86,1.45-0.95,2.43-0.19c1.86,1.43,3.76,2.83,5.46,4.48c3.4,3.31,6.35,7.03,9.29,10.77c2.81,3.57,5.75,7.05,8.32,10.82
	c3,4.38,6.03,8.72,9.11,13.04c1.33,1.86,2.75,3.62,4.23,5.35c2.73,3.19,5.77,6.1,8.13,9.61c0.66,0.99,1.35,1.99,1.83,3.07
	c1.54,3.51,4.16,5.89,7.32,7.68c2.21,1.26,4.4,2.53,6.34,4.22c1.19,1.04,2.57,1.79,3.88,2.64c0.51,0.33,1.19,0.5,1.33,1.26
	c-0.28,0.21-0.56,0.4-0.85,0.58c0.29-0.18,0.57-0.37,0.85-0.58c0.43,0.04,0.87,0.07,1.29,0.14c1.88,0.3,3.69,0.32,5.57-0.35
	c1.67-0.6,3.28-1.52,5.12-1.58c0.82,0.03,1.63,0,2.44,0.27c0.95,0.32,1.8,0.74,2.36,1.61c0.44,0.68,1.1,1.04,1.82,1.1
	c2.92,0.26,5.53,1.48,7.97,2.99c1.92,1.19,3.95,1.81,6.1,2.18c2.47,0.42,4.92,1.06,7.45,0.94c0.3-0.01,0.57,0.07,0.76,0.35
	c-0.77,0.69-1.54,1.39-2.3,2.09c0.76-0.7,1.53-1.4,2.3-2.09c0.77-0.52,1.5-1.11,2.32-1.54c3.96-2.1,7.31-5.07,10.56-8.15
	c1.95-1.85,4.16-3.27,6.57-4.35c0.66-0.3,1.38-0.46,2.08-0.66c0.41-0.12,0.77-0.06,0.94,0.43c0.64-1.43,1.51-1.59,2.37-0.26
	c2.04,3.14,5.08,5.03,7.95,7.13c1,0.73,2.18,1.08,3.44,1c0.53-0.04,1.07,0,1.6,0c0.1-0.11,0.19-0.23,0.31-0.31
	c1.59-1.09,3.04-2.32,3.97-4.11c0.11-0.21,0.3-0.39,0.48-0.56c0.97-0.9,1.53-2.06,1.92-3.32c0.18-0.57,0.33-1.16,0.65-1.67
	c-0.29-0.5-0.21-0.9,0.21-1.33c0.47-0.48,1-0.65,1.59-0.44c0.93,0.33,1.76,0.87,2.48,1.54c0.87,0.81,1.85,1.46,2.85,2.07
	c3.38,2.07,6.51,4.54,9.74,6.83c1.82,1.29,3.27,3.13,5.2,4.33c3.07,1.92,6.02,4.04,8.84,6.33c2.97,2.41,5.93,4.84,8.88,7.28
	c0.45,0.37,0.92,0.78,1.23,1.28c1.31,2.13,3.37,3.26,5.39,4.46c2.02,1.19,4.03,2.39,5.66,4.17c1.04,1.13,2.38,1.89,3.7,2.63
	c2.4,1.34,4.63,2.91,6.52,4.99c1.73,1.9,3.54,3.73,5.35,5.56c3.39,3.45,6.92,6.76,10.22,10.3c0.54,0.58,1.21,1.01,1.89,1.39
	c1.23,0.7,2.34,1.5,3.39,2.37c0.18,0.15,0.34,0.3,0.52,0.45c-0.01-0.36-0.03-0.72-0.05-1.08c0,0,0.12,0.01,0.12,0.01
	c0.07-0.01,0.15-0.01,0.22-0.01c0,0.45,0,0.89,0,1.34c2.8,2.49,5.19,5.41,8.12,8.14c4.96,3.7,10.06,7.2,15.36,10.84
	c1.5,1.03,2.92,2.11,4.31,3.22c1.76-1.38,3.52-2.74,5.26-4.14c6.01-4.79,12.15-9.22,18.55-12.92c11.89-6.89,23.73-13.95,35.45-21.32
	c11.21-7.05,22.1-15.05,31.69-25.84c3.46-3.89,6.66-8.18,9.16-13.36c1.43-2.97,2.77-6,4.43-8.8c1.32-2.22,2.93-3.88,4.45-5.69
	c3.39-4.04,7.19-7.3,11.37-9.72c3-1.73,6.11-1.32,9.2-1.29c1.89,0.02,3.47-0.79,5.06-2.09c4.97-4.04,8.96-9.67,13.15-14.94
	c3.94-4.94,7.11-10.75,8.92-17.76c0.6-2.32,1.74-3.86,3.52-4.76c2.51-1.29,5.15-1.42,7.71-1.49c4.4-0.11,8.61-1.19,12.77-2.92
	c3.14-1.31,6.35-2.24,9.6-2.6c3.77-0.41,7.39-1.77,11.11-2.5c0.63-0.12,1.27-0.5,1.83-0.93c3.28-2.5,6.55-5.03,9.81-7.58
	c5.74-4.49,11.2-9.61,17.13-13.64c4.78-3.25,9.12-7.43,13.44-11.66c4.57-4.49,8.87-9.48,13.58-13.74
	c5.12-4.63,10.57-7.93,16.65-9.33c4.24-0.98,8.4-1.22,12.58,0.77c2.55,1.21,5.11,2.38,7.62,3.74c5.09,2.75,10.4,4.81,15.04,8.99
	c1.57,1.42,3.09,2.99,4.77,4.14c3.72,2.55,6.8,6.18,9.71,10.15c1.1,1.5,2.18,3,3.46,4.27c3.58,3.56,7.3,6.85,11.05,10.05
	c2.93,2.5,6.16,4.23,9.59,4.91c2.84,0.56,5.59,1.43,8.28,2.62c0-42.67,0-85.34,0-128H0z"/>
</svg>
