<svg xmlns="http://www.w3.org/2000/svg" xmlns:xlink="http://www.w3.org/1999/xlink" version="1.1" id="Ebene_1" x="0px" y="0px" viewBox="0 0 841.89 595.28" style="enable-background:new 0 0 841.89 595.28;" xml:space="preserve">
<style type="text/css">
	.st0{fill:#ffffff;}
</style>
<path class="st0" d="M558.55,135.34c-6.19-23.01-24.33-41.14-47.33-47.34C469.2,76.5,301.1,76.5,301.1,76.5s-168.09,0-210.11,11.06  c-22.56,6.19-41.14,24.77-47.33,47.77C32.6,177.36,32.6,264.5,32.6,264.5s0,87.58,11.06,129.16c6.19,23,24.33,41.14,47.33,47.33  c42.46,11.5,210.12,11.5,210.12,11.5s168.09,0,210.11-11.06c23.01-6.19,41.14-24.33,47.34-47.33  c11.06-42.02,11.06-129.16,11.06-129.16S570.06,177.36,558.55,135.34z M247.58,345.01V183.99l139.78,80.51L247.58,345.01z" fill="#000000"/>
</svg>